<!-- 1435a261447b3ede --><svg xmlns="http://www.w3.org/2000/svg" viewBox="0 0 640 360" width="640" height="360" preserveAspectRatio="none"><rect width="640" height="360" fill="#0f0f10"/><line x1="0" x2="640" y1="60.0" y2="60.0" stroke="#1d1d20" stroke-width="1"/><line x1="0" x2="640" y1="120.0" y2="120.0" stroke="#1d1d20" stroke-width="1"/><line x1="0" x2="640" y1="180.0" y2="180.0" stroke="#1d1d20" stroke-width="1"/><line x1="0" x2="640" y1="240.0" y2="240.0" stroke="#1d1d20" stroke-width="1"/><line x1="0" x2="640" y1="300.0" y2="300.0" stroke="#1d1d20" stroke-width="1"/><line x1="10.2" x2="10.2" y1="252.9" y2="268.0" stroke="#ef5350" stroke-width="1"/><rect x="8.8" y="262.1" width="2.76" height="1.0" fill="#ef5350"/><line x1="14.7" x2="14.7" y1="246.4" y2="267.1" stroke="#26a69a" stroke-width="1"/><rect x="13.3" y="248.1" width="2.76" height="14.8" fill="#26a69a"/><line x1="19.1" x2="19.1" y1="222.2" y2="250.0" stroke="#26a69a" stroke-width="1"/><rect x="17.8" y="228.6" width="2.76" height="19.5" fill="#26a69a"/><line x1="23.6" x2="23.6" y1="213.5" y2="233.0" stroke="#26a69a" stroke-width="1"/><rect x="22.2" y="216.9" width="2.76" height="11.7" fill="#26a69a"/><line x1="28.1" x2="28.1" y1="209.7" y2="226.2" stroke="#ef5350" stroke-width="1"/><rect x="26.7" y="216.9" width="2.76" height="7.5" fill="#ef5350"/><line x1="32.5" x2="32.5" y1="220.5" y2="270.8" stroke="#ef5350" stroke-width="1"/><rect x="31.1" y="224.4" width="2.76" height="41.1" fill="#ef5350"/><line x1="37.0" x2="37.0" y1="258.0" y2="281.2" stroke="#26a69a" stroke-width="1"/><rect x="35.6" y="258.6" width="2.76" height="7.0" fill="#26a69a"/><line x1="41.4" x2="41.4" y1="239.6" y2="259.3" stroke="#26a69a" stroke-width="1"/><rect x="40.0" y="246.8" width="2.76" height="11.8" fill="#26a69a"/><line x1="45.9" x2="45.9" y1="229.8" y2="267.0" stroke="#26a69a" stroke-width="1"/><rect x="44.5" y="235.5" width="2.76" height="11.3" fill="#26a69a"/><line x1="50.3" x2="50.3" y1="229.9" y2="245.1" stroke="#ef5350" stroke-width="1"/><rect x="49.0" y="235.5" width="2.76" height="2.4" fill="#ef5350"/><line x1="54.8" x2="54.8" y1="228.7" y2="251.6" stroke="#ef5350" stroke-width="1"/><rect x="53.4" y="237.8" width="2.76" height="9.0" fill="#ef5350"/><line x1="59.3" x2="59.3" y1="230.7" y2="263.8" stroke="#26a69a" stroke-width="1"/><rect x="57.9" y="236.1" width="2.76" height="10.7" fill="#26a69a"/><line x1="63.7" x2="63.7" y1="213.1" y2="256.4" stroke="#26a69a" stroke-width="1"/><rect x="62.3" y="229.1" width="2.76" height="7.1" fill="#26a69a"/><line x1="68.2" x2="68.2" y1="213.9" y2="242.9" stroke="#26a69a" stroke-width="1"/><rect x="66.8" y="223.0" width="2.76" height="6.0" fill="#26a69a"/><line x1="72.6" x2="72.6" y1="197.5" y2="230.0" stroke="#26a69a" stroke-width="1"/><rect x="71.2" y="221.5" width="2.76" height="1.6" fill="#26a69a"/><line x1="77.1" x2="77.1" y1="170.6" y2="221.7" stroke="#26a69a" stroke-width="1"/><rect x="75.7" y="180.3" width="2.76" height="41.2" fill="#26a69a"/><line x1="81.5" x2="81.5" y1="159.8" y2="205.7" stroke="#ef5350" stroke-width="1"/><rect x="80.2" y="180.3" width="2.76" height="6.8" fill="#ef5350"/><line x1="86.0" x2="86.0" y1="181.7" y2="199.8" stroke="#ef5350" stroke-width="1"/><rect x="84.6" y="187.1" width="2.76" height="8.6" fill="#ef5350"/><line x1="90.5" x2="90.5" y1="182.8" y2="200.3" stroke="#ef5350" stroke-width="1"/><rect x="89.1" y="195.7" width="2.76" height="1.0" fill="#ef5350"/><line x1="94.9" x2="94.9" y1="192.9" y2="204.3" stroke="#ef5350" stroke-width="1"/><rect x="93.5" y="196.0" width="2.76" height="4.9" fill="#ef5350"/><line x1="99.4" x2="99.4" y1="186.5" y2="201.0" stroke="#26a69a" stroke-width="1"/><rect x="98.0" y="189.7" width="2.76" height="11.2" fill="#26a69a"/><line x1="103.8" x2="103.8" y1="180.8" y2="195.9" stroke="#26a69a" stroke-width="1"/><rect x="102.4" y="182.5" width="2.76" height="7.2" fill="#26a69a"/><line x1="108.3" x2="108.3" y1="178.5" y2="192.3" stroke="#ef5350" stroke-width="1"/><rect x="106.9" y="182.5" width="2.76" height="6.0" fill="#ef5350"/><line x1="112.7" x2="112.7" y1="176.6" y2="202.4" stroke="#26a69a" stroke-width="1"/><rect x="111.4" y="180.4" width="2.76" height="8.0" fill="#26a69a"/><line x1="117.2" x2="117.2" y1="164.3" y2="183.6" stroke="#26a69a" stroke-width="1"/><rect x="115.8" y="164.3" width="2.76" height="16.1" fill="#26a69a"/><line x1="121.7" x2="121.7" y1="143.7" y2="164.9" stroke="#26a69a" stroke-width="1"/><rect x="120.3" y="145.8" width="2.76" height="18.4" fill="#26a69a"/><line x1="126.1" x2="126.1" y1="66.1" y2="148.8" stroke="#26a69a" stroke-width="1"/><rect x="124.7" y="81.1" width="2.76" height="64.7" fill="#26a69a"/><line x1="130.6" x2="130.6" y1="79.2" y2="122.6" stroke="#ef5350" stroke-width="1"/><rect x="129.2" y="81.1" width="2.76" height="36.9" fill="#ef5350"/><line x1="135.0" x2="135.0" y1="113.2" y2="123.7" stroke="#ef5350" stroke-width="1"/><rect x="133.6" y="118.0" width="2.76" height="1.0" fill="#ef5350"/><line x1="139.5" x2="139.5" y1="70.5" y2="130.3" stroke="#26a69a" stroke-width="1"/><rect x="138.1" y="103.3" width="2.76" height="15.0" fill="#26a69a"/><line x1="143.9" x2="143.9" y1="82.5" y2="116.8" stroke="#ef5350" stroke-width="1"/><rect x="142.6" y="103.3" width="2.76" height="1.0" fill="#ef5350"/><line x1="148.4" x2="148.4" y1="91.8" y2="110.4" stroke="#26a69a" stroke-width="1"/><rect x="147.0" y="96.3" width="2.76" height="7.9" fill="#26a69a"/><line x1="152.9" x2="152.9" y1="88.1" y2="106.5" stroke="#ef5350" stroke-width="1"/><rect x="151.5" y="96.3" width="2.76" height="3.6" fill="#ef5350"/><line x1="157.3" x2="157.3" y1="84.9" y2="99.9" stroke="#26a69a" stroke-width="1"/><rect x="155.9" y="91.6" width="2.76" height="8.3" fill="#26a69a"/><line x1="161.8" x2="161.8" y1="48.3" y2="99.4" stroke="#26a69a" stroke-width="1"/><rect x="160.4" y="69.6" width="2.76" height="22.0" fill="#26a69a"/><line x1="166.2" x2="166.2" y1="48.6" y2="87.7" stroke="#ef5350" stroke-width="1"/><rect x="164.8" y="69.6" width="2.76" height="13.6" fill="#ef5350"/><line x1="170.7" x2="170.7" y1="68.1" y2="150.9" stroke="#ef5350" stroke-width="1"/><rect x="169.3" y="83.2" width="2.76" height="52.8" fill="#ef5350"/><line x1="175.1" x2="175.1" y1="131.2" y2="164.9" stroke="#ef5350" stroke-width="1"/><rect x="173.8" y="136.0" width="2.76" height="18.5" fill="#ef5350"/><line x1="179.6" x2="179.6" y1="144.6" y2="173.4" stroke="#ef5350" stroke-width="1"/><rect x="178.2" y="154.6" width="2.76" height="10.5" fill="#ef5350"/><line x1="184.1" x2="184.1" y1="159.1" y2="201.9" stroke="#ef5350" stroke-width="1"/><rect x="182.7" y="165.1" width="2.76" height="20.9" fill="#ef5350"/><line x1="188.5" x2="188.5" y1="180.2" y2="238.8" stroke="#ef5350" stroke-width="1"/><rect x="187.1" y="186.0" width="2.76" height="30.8" fill="#ef5350"/><line x1="193.0" x2="193.0" y1="212.6" y2="232.8" stroke="#26a69a" stroke-width="1"/><rect x="191.6" y="213.7" width="2.76" height="3.1" fill="#26a69a"/><line x1="197.4" x2="197.4" y1="201.1" y2="219.0" stroke="#26a69a" stroke-width="1"/><rect x="196.0" y="205.6" width="2.76" height="8.1" fill="#26a69a"/><line x1="201.9" x2="201.9" y1="199.4" y2="207.5" stroke="#26a69a" stroke-width="1"/><rect x="200.5" y="200.9" width="2.76" height="4.6" fill="#26a69a"/><line x1="206.3" x2="206.3" y1="199.2" y2="205.6" stroke="#26a69a" stroke-width="1"/><rect x="205.0" y="199.8" width="2.76" height="1.2" fill="#26a69a"/><line x1="210.8" x2="210.8" y1="198.9" y2="204.3" stroke="#ef5350" stroke-width="1"/><rect x="209.4" y="199.8" width="2.76" height="2.5" fill="#ef5350"/><line x1="215.3" x2="215.3" y1="192.5" y2="205.3" stroke="#26a69a" stroke-width="1"/><rect x="213.9" y="194.5" width="2.76" height="7.8" fill="#26a69a"/><line x1="219.7" x2="219.7" y1="190.4" y2="197.0" stroke="#ef5350" stroke-width="1"/><rect x="218.3" y="194.5" width="2.76" height="1.0" fill="#ef5350"/><line x1="224.2" x2="224.2" y1="192.3" y2="197.0" stroke="#ef5350" stroke-width="1"/><rect x="222.8" y="195.0" width="2.76" height="2.0" fill="#ef5350"/><line x1="228.6" x2="228.6" y1="192.1" y2="201.2" stroke="#26a69a" stroke-width="1"/><rect x="227.2" y="192.1" width="2.76" height="4.9" fill="#26a69a"/><line x1="233.1" x2="233.1" y1="189.6" y2="201.2" stroke="#ef5350" stroke-width="1"/><rect x="231.7" y="192.1" width="2.76" height="5.9" fill="#ef5350"/><line x1="237.5" x2="237.5" y1="194.0" y2="199.4" stroke="#26a69a" stroke-width="1"/><rect x="236.2" y="194.6" width="2.76" height="3.4" fill="#26a69a"/><line x1="242.0" x2="242.0" y1="192.6" y2="200.0" stroke="#ef5350" stroke-width="1"/><rect x="240.6" y="194.6" width="2.76" height="4.6" fill="#ef5350"/><line x1="246.5" x2="246.5" y1="193.8" y2="199.2" stroke="#26a69a" stroke-width="1"/><rect x="245.1" y="198.6" width="2.76" height="1.0" fill="#26a69a"/><line x1="250.9" x2="250.9" y1="194.3" y2="199.5" stroke="#26a69a" stroke-width="1"/><rect x="249.5" y="196.1" width="2.76" height="2.5" fill="#26a69a"/><line x1="255.4" x2="255.4" y1="193.3" y2="197.8" stroke="#ef5350" stroke-width="1"/><rect x="254.0" y="196.1" width="2.76" height="1.3" fill="#ef5350"/><line x1="259.8" x2="259.8" y1="194.8" y2="198.3" stroke="#26a69a" stroke-width="1"/><rect x="258.4" y="195.3" width="2.76" height="2.1" fill="#26a69a"/><line x1="264.3" x2="264.3" y1="191.3" y2="195.6" stroke="#26a69a" stroke-width="1"/><rect x="262.9" y="193.5" width="2.76" height="1.8" fill="#26a69a"/><line x1="268.7" x2="268.7" y1="179.0" y2="193.5" stroke="#26a69a" stroke-width="1"/><rect x="267.4" y="181.1" width="2.76" height="12.4" fill="#26a69a"/><line x1="273.2" x2="273.2" y1="176.7" y2="186.8" stroke="#ef5350" stroke-width="1"/><rect x="271.8" y="181.1" width="2.76" height="1.0" fill="#ef5350"/><line x1="277.7" x2="277.7" y1="181.9" y2="188.1" stroke="#ef5350" stroke-width="1"/><rect x="276.3" y="181.9" width="2.76" height="1.5" fill="#ef5350"/><line x1="282.1" x2="282.1" y1="182.0" y2="187.3" stroke="#26a69a" stroke-width="1"/><rect x="280.7" y="182.0" width="2.76" height="1.4" fill="#26a69a"/><line x1="286.6" x2="286.6" y1="181.6" y2="186.6" stroke="#ef5350" stroke-width="1"/><rect x="285.2" y="182.0" width="2.76" height="1.0" fill="#ef5350"/><line x1="291.0" x2="291.0" y1="173.7" y2="183.7" stroke="#26a69a" stroke-width="1"/><rect x="289.6" y="173.8" width="2.76" height="8.5" fill="#26a69a"/><line x1="295.5" x2="295.5" y1="173.7" y2="178.9" stroke="#ef5350" stroke-width="1"/><rect x="294.1" y="173.8" width="2.76" height="3.5" fill="#ef5350"/><line x1="299.9" x2="299.9" y1="177.2" y2="190.1" stroke="#ef5350" stroke-width="1"/><rect x="298.6" y="177.2" width="2.76" height="5.8" fill="#ef5350"/><line x1="304.4" x2="304.4" y1="179.1" y2="189.7" stroke="#ef5350" stroke-width="1"/><rect x="303.0" y="183.0" width="2.76" height="5.5" fill="#ef5350"/><line x1="308.9" x2="308.9" y1="186.4" y2="198.8" stroke="#ef5350" stroke-width="1"/><rect x="307.5" y="188.5" width="2.76" height="1.7" fill="#ef5350"/><line x1="313.3" x2="313.3" y1="185.3" y2="191.5" stroke="#26a69a" stroke-width="1"/><rect x="311.9" y="187.3" width="2.76" height="2.9" fill="#26a69a"/><line x1="317.8" x2="317.8" y1="185.8" y2="189.4" stroke="#ef5350" stroke-width="1"/><rect x="316.4" y="187.3" width="2.76" height="1.0" fill="#ef5350"/><line x1="322.2" x2="322.2" y1="182.3" y2="187.8" stroke="#26a69a" stroke-width="1"/><rect x="320.8" y="185.7" width="2.76" height="2.1" fill="#26a69a"/><line x1="326.7" x2="326.7" y1="184.4" y2="190.2" stroke="#26a69a" stroke-width="1"/><rect x="325.3" y="185.1" width="2.76" height="1.0" fill="#26a69a"/><line x1="331.1" x2="331.1" y1="182.3" y2="186.9" stroke="#ef5350" stroke-width="1"/><rect x="329.8" y="185.1" width="2.76" height="1.0" fill="#ef5350"/><line x1="335.6" x2="335.6" y1="180.5" y2="185.9" stroke="#26a69a" stroke-width="1"/><rect x="334.2" y="183.3" width="2.76" height="2.1" fill="#26a69a"/><line x1="340.1" x2="340.1" y1="182.7" y2="185.2" stroke="#ef5350" stroke-width="1"/><rect x="338.7" y="183.3" width="2.76" height="1.6" fill="#ef5350"/><line x1="344.5" x2="344.5" y1="178.0" y2="184.9" stroke="#26a69a" stroke-width="1"/><rect x="343.1" y="179.0" width="2.76" height="5.8" fill="#26a69a"/><line x1="349.0" x2="349.0" y1="169.9" y2="180.2" stroke="#26a69a" stroke-width="1"/><rect x="347.6" y="171.2" width="2.76" height="7.9" fill="#26a69a"/><line x1="353.4" x2="353.4" y1="168.0" y2="177.8" stroke="#26a69a" stroke-width="1"/><rect x="352.0" y="168.0" width="2.76" height="3.2" fill="#26a69a"/><line x1="357.9" x2="357.9" y1="162.9" y2="172.2" stroke="#ef5350" stroke-width="1"/><rect x="356.5" y="168.0" width="2.76" height="1.0" fill="#ef5350"/><line x1="362.3" x2="362.3" y1="155.4" y2="170.5" stroke="#26a69a" stroke-width="1"/><rect x="361.0" y="161.1" width="2.76" height="7.0" fill="#26a69a"/><line x1="366.8" x2="366.8" y1="149.9" y2="161.2" stroke="#26a69a" stroke-width="1"/><rect x="365.4" y="158.4" width="2.76" height="2.7" fill="#26a69a"/><line x1="371.3" x2="371.3" y1="155.3" y2="161.5" stroke="#26a69a" stroke-width="1"/><rect x="369.9" y="156.2" width="2.76" height="2.1" fill="#26a69a"/><line x1="375.7" x2="375.7" y1="151.3" y2="167.9" stroke="#ef5350" stroke-width="1"/><rect x="374.3" y="156.2" width="2.76" height="9.9" fill="#ef5350"/><line x1="380.2" x2="380.2" y1="155.6" y2="167.3" stroke="#26a69a" stroke-width="1"/><rect x="378.8" y="159.7" width="2.76" height="6.5" fill="#26a69a"/><line x1="384.6" x2="384.6" y1="157.7" y2="167.6" stroke="#26a69a" stroke-width="1"/><rect x="383.2" y="157.7" width="2.76" height="2.0" fill="#26a69a"/><line x1="389.1" x2="389.1" y1="146.9" y2="159.7" stroke="#ef5350" stroke-width="1"/><rect x="387.7" y="157.7" width="2.76" height="1.8" fill="#ef5350"/><line x1="393.5" x2="393.5" y1="149.7" y2="163.7" stroke="#26a69a" stroke-width="1"/><rect x="392.2" y="153.2" width="2.76" height="6.3" fill="#26a69a"/><line x1="398.0" x2="398.0" y1="148.0" y2="156.5" stroke="#ef5350" stroke-width="1"/><rect x="396.6" y="153.2" width="2.76" height="2.9" fill="#ef5350"/><line x1="402.5" x2="402.5" y1="153.2" y2="156.5" stroke="#26a69a" stroke-width="1"/><rect x="401.1" y="154.8" width="2.76" height="1.3" fill="#26a69a"/><line x1="406.9" x2="406.9" y1="142.3" y2="154.8" stroke="#26a69a" stroke-width="1"/><rect x="405.5" y="149.7" width="2.76" height="5.2" fill="#26a69a"/><line x1="411.4" x2="411.4" y1="124.2" y2="151.4" stroke="#26a69a" stroke-width="1"/><rect x="410.0" y="126.7" width="2.76" height="22.9" fill="#26a69a"/><line x1="415.8" x2="415.8" y1="113.1" y2="129.2" stroke="#26a69a" stroke-width="1"/><rect x="414.4" y="125.4" width="2.76" height="1.3" fill="#26a69a"/><line x1="420.3" x2="420.3" y1="78.1" y2="125.4" stroke="#26a69a" stroke-width="1"/><rect x="418.9" y="90.8" width="2.76" height="34.6" fill="#26a69a"/><line x1="424.7" x2="424.7" y1="70.5" y2="92.9" stroke="#26a69a" stroke-width="1"/><rect x="423.4" y="86.5" width="2.76" height="4.3" fill="#26a69a"/><line x1="429.2" x2="429.2" y1="76.6" y2="105.5" stroke="#26a69a" stroke-width="1"/><rect x="427.8" y="80.3" width="2.76" height="6.1" fill="#26a69a"/><line x1="433.7" x2="433.7" y1="60.2" y2="90.1" stroke="#ef5350" stroke-width="1"/><rect x="432.3" y="80.3" width="2.76" height="1.2" fill="#ef5350"/><line x1="438.1" x2="438.1" y1="74.8" y2="93.0" stroke="#ef5350" stroke-width="1"/><rect x="436.7" y="81.5" width="2.76" height="5.5" fill="#ef5350"/><line x1="442.6" x2="442.6" y1="87.0" y2="115.0" stroke="#ef5350" stroke-width="1"/><rect x="441.2" y="87.0" width="2.76" height="25.3" fill="#ef5350"/><line x1="447.0" x2="447.0" y1="110.5" y2="147.8" stroke="#ef5350" stroke-width="1"/><rect x="445.6" y="112.3" width="2.76" height="32.1" fill="#ef5350"/><line x1="451.5" x2="451.5" y1="130.0" y2="150.6" stroke="#26a69a" stroke-width="1"/><rect x="450.1" y="131.8" width="2.76" height="12.6" fill="#26a69a"/><line x1="455.9" x2="455.9" y1="92.1" y2="131.8" stroke="#26a69a" stroke-width="1"/><rect x="454.6" y="104.5" width="2.76" height="27.3" fill="#26a69a"/><line x1="460.4" x2="460.4" y1="90.6" y2="109.8" stroke="#ef5350" stroke-width="1"/><rect x="459.0" y="104.5" width="2.76" height="1.2" fill="#ef5350"/><line x1="464.9" x2="464.9" y1="90.4" y2="113.2" stroke="#26a69a" stroke-width="1"/><rect x="463.5" y="104.0" width="2.76" height="1.7" fill="#26a69a"/><line x1="469.3" x2="469.3" y1="104.0" y2="129.2" stroke="#ef5350" stroke-width="1"/><rect x="467.9" y="104.0" width="2.76" height="14.0" fill="#ef5350"/><line x1="473.8" x2="473.8" y1="106.1" y2="119.0" stroke="#26a69a" stroke-width="1"/><rect x="472.4" y="110.7" width="2.76" height="7.4" fill="#26a69a"/><line x1="478.2" x2="478.2" y1="102.0" y2="121.2" stroke="#26a69a" stroke-width="1"/><rect x="476.8" y="104.6" width="2.76" height="6.1" fill="#26a69a"/><line x1="482.7" x2="482.7" y1="104.6" y2="126.2" stroke="#ef5350" stroke-width="1"/><rect x="481.3" y="104.6" width="2.76" height="18.5" fill="#ef5350"/><line x1="487.1" x2="487.1" y1="86.3" y2="126.6" stroke="#26a69a" stroke-width="1"/><rect x="485.8" y="91.8" width="2.76" height="31.3" fill="#26a69a"/><line x1="491.6" x2="491.6" y1="75.8" y2="149.5" stroke="#ef5350" stroke-width="1"/><rect x="490.2" y="91.8" width="2.76" height="45.1" fill="#ef5350"/><line x1="496.1" x2="496.1" y1="136.6" y2="162.5" stroke="#ef5350" stroke-width="1"/><rect x="494.7" y="136.9" width="2.76" height="21.9" fill="#ef5350"/><line x1="500.5" x2="500.5" y1="155.0" y2="174.7" stroke="#26a69a" stroke-width="1"/><rect x="499.1" y="156.3" width="2.76" height="2.5" fill="#26a69a"/><line x1="505.0" x2="505.0" y1="148.2" y2="161.7" stroke="#26a69a" stroke-width="1"/><rect x="503.6" y="149.0" width="2.76" height="7.3" fill="#26a69a"/><line x1="509.4" x2="509.4" y1="135.6" y2="153.9" stroke="#26a69a" stroke-width="1"/><rect x="508.0" y="135.7" width="2.76" height="13.3" fill="#26a69a"/><line x1="513.9" x2="513.9" y1="129.6" y2="142.2" stroke="#26a69a" stroke-width="1"/><rect x="512.5" y="132.9" width="2.76" height="2.8" fill="#26a69a"/><line x1="518.3" x2="518.3" y1="124.8" y2="136.8" stroke="#26a69a" stroke-width="1"/><rect x="517.0" y="129.1" width="2.76" height="3.8" fill="#26a69a"/><line x1="522.8" x2="522.8" y1="117.2" y2="134.6" stroke="#26a69a" stroke-width="1"/><rect x="521.4" y="119.3" width="2.76" height="9.8" fill="#26a69a"/><line x1="527.3" x2="527.3" y1="115.6" y2="125.3" stroke="#ef5350" stroke-width="1"/><rect x="525.9" y="119.3" width="2.76" height="1.0" fill="#ef5350"/><line x1="531.7" x2="531.7" y1="112.9" y2="132.1" stroke="#ef5350" stroke-width="1"/><rect x="530.3" y="120.1" width="2.76" height="10.5" fill="#ef5350"/><line x1="536.2" x2="536.2" y1="118.6" y2="130.6" stroke="#26a69a" stroke-width="1"/><rect x="534.8" y="122.9" width="2.76" height="7.7" fill="#26a69a"/><line x1="540.6" x2="540.6" y1="109.7" y2="139.3" stroke="#ef5350" stroke-width="1"/><rect x="539.2" y="122.9" width="2.76" height="15.1" fill="#ef5350"/><line x1="545.1" x2="545.1" y1="130.3" y2="147.9" stroke="#ef5350" stroke-width="1"/><rect x="543.7" y="138.0" width="2.76" height="5.5" fill="#ef5350"/><line x1="549.5" x2="549.5" y1="140.2" y2="155.5" stroke="#ef5350" stroke-width="1"/><rect x="548.2" y="143.5" width="2.76" height="2.7" fill="#ef5350"/><line x1="554.0" x2="554.0" y1="138.3" y2="146.2" stroke="#26a69a" stroke-width="1"/><rect x="552.6" y="139.6" width="2.76" height="6.6" fill="#26a69a"/><line x1="558.5" x2="558.5" y1="132.6" y2="145.3" stroke="#ef5350" stroke-width="1"/><rect x="557.1" y="139.6" width="2.76" height="5.6" fill="#ef5350"/><line x1="562.9" x2="562.9" y1="145.2" y2="167.4" stroke="#ef5350" stroke-width="1"/><rect x="561.5" y="145.2" width="2.76" height="11.3" fill="#ef5350"/><line x1="567.4" x2="567.4" y1="138.0" y2="158.6" stroke="#26a69a" stroke-width="1"/><rect x="566.0" y="141.8" width="2.76" height="14.8" fill="#26a69a"/><line x1="571.8" x2="571.8" y1="114.6" y2="141.8" stroke="#26a69a" stroke-width="1"/><rect x="570.4" y="115.6" width="2.76" height="26.1" fill="#26a69a"/><line x1="576.3" x2="576.3" y1="106.5" y2="131.4" stroke="#ef5350" stroke-width="1"/><rect x="574.9" y="115.6" width="2.76" height="2.4" fill="#ef5350"/><line x1="580.7" x2="580.7" y1="102.7" y2="119.4" stroke="#26a69a" stroke-width="1"/><rect x="579.4" y="109.1" width="2.76" height="9.0" fill="#26a69a"/><line x1="585.2" x2="585.2" y1="95.2" y2="111.5" stroke="#26a69a" stroke-width="1"/><rect x="583.8" y="101.8" width="2.76" height="7.3" fill="#26a69a"/><line x1="589.7" x2="589.7" y1="94.4" y2="109.4" stroke="#ef5350" stroke-width="1"/><rect x="588.3" y="101.8" width="2.76" height="2.4" fill="#ef5350"/><line x1="594.1" x2="594.1" y1="88.8" y2="117.1" stroke="#26a69a" stroke-width="1"/><rect x="592.7" y="98.0" width="2.76" height="6.2" fill="#26a69a"/><line x1="598.6" x2="598.6" y1="81.1" y2="118.9" stroke="#26a69a" stroke-width="1"/><rect x="597.2" y="81.5" width="2.76" height="16.5" fill="#26a69a"/><line x1="603.0" x2="603.0" y1="76.9" y2="132.2" stroke="#ef5350" stroke-width="1"/><rect x="601.6" y="81.5" width="2.76" height="50.2" fill="#ef5350"/><line x1="607.5" x2="607.5" y1="125.3" y2="141.0" stroke="#ef5350" stroke-width="1"/><rect x="606.1" y="131.6" width="2.76" height="7.6" fill="#ef5350"/><line x1="611.9" x2="611.9" y1="131.0" y2="145.1" stroke="#26a69a" stroke-width="1"/><rect x="610.6" y="132.1" width="2.76" height="7.1" fill="#26a69a"/><line x1="616.4" x2="616.4" y1="127.2" y2="145.1" stroke="#ef5350" stroke-width="1"/><rect x="615.0" y="132.1" width="2.76" height="12.9" fill="#ef5350"/><line x1="620.9" x2="620.9" y1="135.0" y2="149.7" stroke="#26a69a" stroke-width="1"/><rect x="619.5" y="138.0" width="2.76" height="6.9" fill="#26a69a"/><line x1="625.3" x2="625.3" y1="135.5" y2="141.0" stroke="#ef5350" stroke-width="1"/><rect x="623.9" y="138.0" width="2.76" height="1.0" fill="#ef5350"/><line x1="629.8" x2="629.8" y1="137.5" y2="145.1" stroke="#26a69a" stroke-width="1"/><rect x="628.4" y="138.3" width="2.76" height="1.0" fill="#26a69a"/><path d="M10.2,255.6L14.7,248.8L19.1,209.8L23.6,199.6L28.1,229.2L32.5,289.4L37.0,328.2L41.4,203.2L45.9,194.8L50.3,233.1L54.8,265.2L59.3,259.8L63.7,205.6L68.2,214.8L72.6,225.5L77.1,198.4L81.5,126.1L86.0,235.5L90.5,234.6L94.9,188.8L99.4,193.8L103.8,163.0L108.3,180.1L112.7,205.4L117.2,156.8L121.7,126.8L126.1,87.0L130.6,31.8L135.0,237.3L139.5,128.3L143.9,53.1L148.4,110.6L152.9,96.8L157.3,104.7L161.8,65.6L166.2,48.5L170.7,165.7L175.1,238.9L179.6,142.6L184.1,144.4L188.5,220.2L193.0,239.9L197.4,164.9L201.9,169.0L206.3,201.0L210.8,209.2L215.3,204.8L219.7,181.6L224.2,201.2L228.6,201.9L233.1,186.8L237.5,206.9L242.0,192.0L246.5,204.1L250.9,194.9L255.4,190.3L259.8,200.2L264.3,191.4L268.7,182.1L273.2,165.1L277.7,194.8L282.1,193.2L286.6,178.3L291.0,176.3L295.5,163.8L299.9,193.0L304.4,199.8L308.9,191.6L313.3,182.5L317.8,177.8L322.2,187.9L326.7,183.7L331.1,185.6L335.6,186.3L340.1,181.4L344.5,184.4L349.0,164.4L353.4,159.6L357.9,173.1L362.3,171.2L366.8,150.3L371.3,157.6L375.7,167.3L380.2,180.6L384.6,142.3L389.1,153.4L393.5,163.9L398.0,145.6L402.5,163.0L406.9,151.5L411.4,123.5L415.8,94.4L420.3,118.5L424.7,50.9L429.2,101.6L433.7,100.1L438.1,95.0L442.6,117.9L447.0,170.8L451.5,163.0L455.9,49.6L460.4,48.1L464.9,135.7L469.3,130.9L473.8,135.1L478.2,85.6L482.7,103.7L487.1,139.1L491.6,66.6L496.1,233.4L500.5,181.2L505.0,97.7L509.4,113.5L513.9,119.9L518.3,140.9L522.8,127.8L527.3,109.2L531.7,139.1L536.2,148.0L540.6,113.5L545.1,163.8L549.5,148.6L554.0,130.5L558.5,127.4L562.9,165.2L567.4,164.2L571.8,86.8L576.3,78.9L580.7,145.3L585.2,107.1L589.7,97.0L594.1,115.4L598.6,79.6L603.0,95.1L607.5,233.0L611.9,121.3L616.4,87.9L620.9,159.8L625.3,123.2L629.8,134.6" fill="none" stroke="rgba(255,235,59,1)" stroke-width="2" stroke-linejoin="round"/></svg>