<!-- 60a9c223b3be0036 --><svg xmlns="http://www.w3.org/2000/svg" viewBox="0 0 640 360" width="640" height="360" preserveAspectRatio="none"><rect width="640" height="360" fill="#0f0f10"/><line x1="0" x2="640" y1="60.0" y2="60.0" stroke="#1d1d20" stroke-width="1"/><line x1="0" x2="640" y1="120.0" y2="120.0" stroke="#1d1d20" stroke-width="1"/><line x1="0" x2="640" y1="180.0" y2="180.0" stroke="#1d1d20" stroke-width="1"/><line x1="0" x2="640" y1="240.0" y2="240.0" stroke="#1d1d20" stroke-width="1"/><line x1="0" x2="640" y1="300.0" y2="300.0" stroke="#1d1d20" stroke-width="1"/><line x1="10.2" x2="10.2" y1="292.4" y2="311.6" stroke="#ef5350" stroke-width="1"/><rect x="8.8" y="304.0" width="2.76" height="1.0" fill="#ef5350"/><line x1="14.7" x2="14.7" y1="284.2" y2="310.4" stroke="#26a69a" stroke-width="1"/><rect x="13.3" y="286.3" width="2.76" height="18.7" fill="#26a69a"/><line x1="19.1" x2="19.1" y1="253.5" y2="288.7" stroke="#26a69a" stroke-width="1"/><rect x="17.8" y="261.6" width="2.76" height="24.7" fill="#26a69a"/><line x1="23.6" x2="23.6" y1="242.5" y2="267.2" stroke="#26a69a" stroke-width="1"/><rect x="22.2" y="246.8" width="2.76" height="14.8" fill="#26a69a"/><line x1="28.1" x2="28.1" y1="237.7" y2="258.5" stroke="#ef5350" stroke-width="1"/><rect x="26.7" y="246.8" width="2.76" height="9.5" fill="#ef5350"/><line x1="32.5" x2="32.5" y1="251.4" y2="315.1" stroke="#ef5350" stroke-width="1"/><rect x="31.1" y="256.3" width="2.76" height="52.1" fill="#ef5350"/><line x1="37.0" x2="37.0" y1="298.8" y2="328.2" stroke="#26a69a" stroke-width="1"/><rect x="35.6" y="299.6" width="2.76" height="8.8" fill="#26a69a"/><line x1="41.4" x2="41.4" y1="275.5" y2="300.4" stroke="#26a69a" stroke-width="1"/><rect x="40.0" y="284.7" width="2.76" height="14.9" fill="#26a69a"/><line x1="45.9" x2="45.9" y1="263.1" y2="310.3" stroke="#26a69a" stroke-width="1"/><rect x="44.5" y="270.3" width="2.76" height="14.4" fill="#26a69a"/><line x1="50.3" x2="50.3" y1="263.3" y2="282.5" stroke="#ef5350" stroke-width="1"/><rect x="49.0" y="270.3" width="2.76" height="3.0" fill="#ef5350"/><line x1="54.8" x2="54.8" y1="261.8" y2="290.8" stroke="#ef5350" stroke-width="1"/><rect x="53.4" y="273.3" width="2.76" height="11.5" fill="#ef5350"/><line x1="59.3" x2="59.3" y1="264.3" y2="306.2" stroke="#26a69a" stroke-width="1"/><rect x="57.9" y="271.2" width="2.76" height="13.6" fill="#26a69a"/><line x1="63.7" x2="63.7" y1="242.0" y2="296.8" stroke="#26a69a" stroke-width="1"/><rect x="62.3" y="262.2" width="2.76" height="9.0" fill="#26a69a"/><line x1="68.2" x2="68.2" y1="243.0" y2="279.7" stroke="#26a69a" stroke-width="1"/><rect x="66.8" y="254.6" width="2.76" height="7.6" fill="#26a69a"/><line x1="72.6" x2="72.6" y1="222.2" y2="263.4" stroke="#26a69a" stroke-width="1"/><rect x="71.2" y="252.6" width="2.76" height="2.0" fill="#26a69a"/><line x1="77.1" x2="77.1" y1="188.2" y2="252.9" stroke="#26a69a" stroke-width="1"/><rect x="75.7" y="200.4" width="2.76" height="52.1" fill="#26a69a"/><line x1="81.5" x2="81.5" y1="174.5" y2="232.6" stroke="#ef5350" stroke-width="1"/><rect x="80.2" y="200.4" width="2.76" height="8.6" fill="#ef5350"/><line x1="86.0" x2="86.0" y1="202.2" y2="225.1" stroke="#ef5350" stroke-width="1"/><rect x="84.6" y="209.0" width="2.76" height="10.8" fill="#ef5350"/><line x1="90.5" x2="90.5" y1="203.7" y2="225.8" stroke="#ef5350" stroke-width="1"/><rect x="89.1" y="219.9" width="2.76" height="1.0" fill="#ef5350"/><line x1="94.9" x2="94.9" y1="216.4" y2="230.8" stroke="#ef5350" stroke-width="1"/><rect x="93.5" y="220.3" width="2.76" height="6.2" fill="#ef5350"/><line x1="99.4" x2="99.4" y1="208.3" y2="226.7" stroke="#26a69a" stroke-width="1"/><rect x="98.0" y="212.3" width="2.76" height="14.1" fill="#26a69a"/><line x1="103.8" x2="103.8" y1="201.0" y2="220.1" stroke="#26a69a" stroke-width="1"/><rect x="102.4" y="203.2" width="2.76" height="9.2" fill="#26a69a"/><line x1="108.3" x2="108.3" y1="198.2" y2="215.6" stroke="#ef5350" stroke-width="1"/><rect x="106.9" y="203.2" width="2.76" height="7.6" fill="#ef5350"/><line x1="112.7" x2="112.7" y1="195.8" y2="228.4" stroke="#26a69a" stroke-width="1"/><rect x="111.4" y="200.6" width="2.76" height="10.2" fill="#26a69a"/><line x1="117.2" x2="117.2" y1="180.1" y2="204.6" stroke="#26a69a" stroke-width="1"/><rect x="115.8" y="180.1" width="2.76" height="20.4" fill="#26a69a"/><line x1="121.7" x2="121.7" y1="154.0" y2="180.9" stroke="#26a69a" stroke-width="1"/><rect x="120.3" y="156.7" width="2.76" height="23.4" fill="#26a69a"/><line x1="126.1" x2="126.1" y1="55.8" y2="160.6" stroke="#26a69a" stroke-width="1"/><rect x="124.7" y="74.8" width="2.76" height="82.0" fill="#26a69a"/><line x1="130.6" x2="130.6" y1="72.4" y2="127.3" stroke="#ef5350" stroke-width="1"/><rect x="129.2" y="74.8" width="2.76" height="46.7" fill="#ef5350"/><line x1="135.0" x2="135.0" y1="115.4" y2="128.7" stroke="#ef5350" stroke-width="1"/><rect x="133.6" y="121.5" width="2.76" height="1.0" fill="#ef5350"/><line x1="139.5" x2="139.5" y1="61.3" y2="137.1" stroke="#26a69a" stroke-width="1"/><rect x="138.1" y="102.9" width="2.76" height="19.0" fill="#26a69a"/><line x1="143.9" x2="143.9" y1="76.6" y2="120.0" stroke="#ef5350" stroke-width="1"/><rect x="142.6" y="102.9" width="2.76" height="1.2" fill="#ef5350"/><line x1="148.4" x2="148.4" y1="88.3" y2="111.9" stroke="#26a69a" stroke-width="1"/><rect x="147.0" y="94.0" width="2.76" height="10.1" fill="#26a69a"/><line x1="152.9" x2="152.9" y1="83.7" y2="107.0" stroke="#ef5350" stroke-width="1"/><rect x="151.5" y="94.0" width="2.76" height="4.6" fill="#ef5350"/><line x1="157.3" x2="157.3" y1="79.6" y2="98.6" stroke="#26a69a" stroke-width="1"/><rect x="155.9" y="88.1" width="2.76" height="10.5" fill="#26a69a"/><line x1="161.8" x2="161.8" y1="33.2" y2="97.9" stroke="#26a69a" stroke-width="1"/><rect x="160.4" y="60.2" width="2.76" height="27.9" fill="#26a69a"/><line x1="166.2" x2="166.2" y1="33.5" y2="83.1" stroke="#ef5350" stroke-width="1"/><rect x="164.8" y="60.2" width="2.76" height="17.2" fill="#ef5350"/><line x1="170.7" x2="170.7" y1="58.3" y2="163.2" stroke="#ef5350" stroke-width="1"/><rect x="169.3" y="77.5" width="2.76" height="66.9" fill="#ef5350"/><line x1="175.1" x2="175.1" y1="138.2" y2="180.9" stroke="#ef5350" stroke-width="1"/><rect x="173.8" y="144.4" width="2.76" height="23.5" fill="#ef5350"/><line x1="179.6" x2="179.6" y1="155.3" y2="191.6" stroke="#ef5350" stroke-width="1"/><rect x="178.2" y="167.9" width="2.76" height="13.3" fill="#ef5350"/><line x1="184.1" x2="184.1" y1="173.6" y2="227.8" stroke="#ef5350" stroke-width="1"/><rect x="182.7" y="181.1" width="2.76" height="26.5" fill="#ef5350"/><line x1="188.5" x2="188.5" y1="200.3" y2="274.5" stroke="#ef5350" stroke-width="1"/><rect x="187.1" y="207.6" width="2.76" height="39.0" fill="#ef5350"/><line x1="193.0" x2="193.0" y1="241.4" y2="267.0" stroke="#26a69a" stroke-width="1"/><rect x="191.6" y="242.8" width="2.76" height="3.9" fill="#26a69a"/><line x1="197.4" x2="197.4" y1="226.8" y2="249.5" stroke="#26a69a" stroke-width="1"/><rect x="196.0" y="232.5" width="2.76" height="10.3" fill="#26a69a"/><line x1="201.9" x2="201.9" y1="224.6" y2="234.9" stroke="#26a69a" stroke-width="1"/><rect x="200.5" y="226.6" width="2.76" height="5.9" fill="#26a69a"/><line x1="206.3" x2="206.3" y1="224.4" y2="232.5" stroke="#26a69a" stroke-width="1"/><rect x="205.0" y="225.1" width="2.76" height="1.5" fill="#26a69a"/><line x1="210.8" x2="210.8" y1="224.0" y2="230.8" stroke="#ef5350" stroke-width="1"/><rect x="209.4" y="225.1" width="2.76" height="3.2" fill="#ef5350"/><line x1="215.3" x2="215.3" y1="215.8" y2="232.1" stroke="#26a69a" stroke-width="1"/><rect x="213.9" y="218.4" width="2.76" height="9.9" fill="#26a69a"/><line x1="219.7" x2="219.7" y1="213.2" y2="221.6" stroke="#ef5350" stroke-width="1"/><rect x="218.3" y="218.4" width="2.76" height="1.0" fill="#ef5350"/><line x1="224.2" x2="224.2" y1="215.7" y2="221.6" stroke="#ef5350" stroke-width="1"/><rect x="222.8" y="219.1" width="2.76" height="2.5" fill="#ef5350"/><line x1="228.6" x2="228.6" y1="215.4" y2="226.9" stroke="#26a69a" stroke-width="1"/><rect x="227.2" y="215.4" width="2.76" height="6.2" fill="#26a69a"/><line x1="233.1" x2="233.1" y1="212.2" y2="226.9" stroke="#ef5350" stroke-width="1"/><rect x="231.7" y="215.4" width="2.76" height="7.5" fill="#ef5350"/><line x1="237.5" x2="237.5" y1="217.8" y2="224.7" stroke="#26a69a" stroke-width="1"/><rect x="236.2" y="218.6" width="2.76" height="4.3" fill="#26a69a"/><line x1="242.0" x2="242.0" y1="216.1" y2="225.3" stroke="#ef5350" stroke-width="1"/><rect x="240.6" y="218.6" width="2.76" height="5.8" fill="#ef5350"/><line x1="246.5" x2="246.5" y1="217.5" y2="224.4" stroke="#26a69a" stroke-width="1"/><rect x="245.1" y="223.6" width="2.76" height="1.0" fill="#26a69a"/><line x1="250.9" x2="250.9" y1="218.1" y2="224.8" stroke="#26a69a" stroke-width="1"/><rect x="249.5" y="220.5" width="2.76" height="3.1" fill="#26a69a"/><line x1="255.4" x2="255.4" y1="216.9" y2="222.5" stroke="#ef5350" stroke-width="1"/><rect x="254.0" y="220.5" width="2.76" height="1.7" fill="#ef5350"/><line x1="259.8" x2="259.8" y1="218.7" y2="223.3" stroke="#26a69a" stroke-width="1"/><rect x="258.4" y="219.4" width="2.76" height="2.7" fill="#26a69a"/><line x1="264.3" x2="264.3" y1="214.3" y2="219.8" stroke="#26a69a" stroke-width="1"/><rect x="262.9" y="217.1" width="2.76" height="2.3" fill="#26a69a"/><line x1="268.7" x2="268.7" y1="198.7" y2="217.1" stroke="#26a69a" stroke-width="1"/><rect x="267.4" y="201.4" width="2.76" height="15.7" fill="#26a69a"/><line x1="273.2" x2="273.2" y1="195.9" y2="208.7" stroke="#ef5350" stroke-width="1"/><rect x="271.8" y="201.4" width="2.76" height="1.0" fill="#ef5350"/><line x1="277.7" x2="277.7" y1="202.4" y2="210.3" stroke="#ef5350" stroke-width="1"/><rect x="276.3" y="202.4" width="2.76" height="1.9" fill="#ef5350"/><line x1="282.1" x2="282.1" y1="202.6" y2="209.3" stroke="#26a69a" stroke-width="1"/><rect x="280.7" y="202.6" width="2.76" height="1.7" fill="#26a69a"/><line x1="286.6" x2="286.6" y1="202.1" y2="208.5" stroke="#ef5350" stroke-width="1"/><rect x="285.2" y="202.6" width="2.76" height="1.0" fill="#ef5350"/><line x1="291.0" x2="291.0" y1="192.1" y2="204.7" stroke="#26a69a" stroke-width="1"/><rect x="289.6" y="192.2" width="2.76" height="10.7" fill="#26a69a"/><line x1="295.5" x2="295.5" y1="192.1" y2="198.6" stroke="#ef5350" stroke-width="1"/><rect x="294.1" y="192.2" width="2.76" height="4.4" fill="#ef5350"/><line x1="299.9" x2="299.9" y1="196.6" y2="212.8" stroke="#ef5350" stroke-width="1"/><rect x="298.6" y="196.6" width="2.76" height="7.3" fill="#ef5350"/><line x1="304.4" x2="304.4" y1="198.9" y2="212.3" stroke="#ef5350" stroke-width="1"/><rect x="303.0" y="203.9" width="2.76" height="6.9" fill="#ef5350"/><line x1="308.9" x2="308.9" y1="208.2" y2="223.9" stroke="#ef5350" stroke-width="1"/><rect x="307.5" y="210.8" width="2.76" height="2.2" fill="#ef5350"/><line x1="313.3" x2="313.3" y1="206.8" y2="214.6" stroke="#26a69a" stroke-width="1"/><rect x="311.9" y="209.3" width="2.76" height="3.7" fill="#26a69a"/><line x1="317.8" x2="317.8" y1="207.4" y2="211.9" stroke="#ef5350" stroke-width="1"/><rect x="316.4" y="209.3" width="2.76" height="1.0" fill="#ef5350"/><line x1="322.2" x2="322.2" y1="202.9" y2="209.9" stroke="#26a69a" stroke-width="1"/><rect x="320.8" y="207.3" width="2.76" height="2.7" fill="#26a69a"/><line x1="326.7" x2="326.7" y1="205.6" y2="213.0" stroke="#26a69a" stroke-width="1"/><rect x="325.3" y="206.5" width="2.76" height="1.0" fill="#26a69a"/><line x1="331.1" x2="331.1" y1="202.9" y2="208.8" stroke="#ef5350" stroke-width="1"/><rect x="329.8" y="206.5" width="2.76" height="1.0" fill="#ef5350"/><line x1="335.6" x2="335.6" y1="200.7" y2="207.6" stroke="#26a69a" stroke-width="1"/><rect x="334.2" y="204.3" width="2.76" height="2.6" fill="#26a69a"/><line x1="340.1" x2="340.1" y1="203.5" y2="206.6" stroke="#ef5350" stroke-width="1"/><rect x="338.7" y="204.3" width="2.76" height="2.0" fill="#ef5350"/><line x1="344.5" x2="344.5" y1="197.5" y2="206.2" stroke="#26a69a" stroke-width="1"/><rect x="343.1" y="198.8" width="2.76" height="7.4" fill="#26a69a"/><line x1="349.0" x2="349.0" y1="187.3" y2="200.3" stroke="#26a69a" stroke-width="1"/><rect x="347.6" y="188.9" width="2.76" height="10.0" fill="#26a69a"/><line x1="353.4" x2="353.4" y1="184.9" y2="197.3" stroke="#26a69a" stroke-width="1"/><rect x="352.0" y="184.9" width="2.76" height="4.0" fill="#26a69a"/><line x1="357.9" x2="357.9" y1="178.4" y2="190.2" stroke="#ef5350" stroke-width="1"/><rect x="356.5" y="184.9" width="2.76" height="1.0" fill="#ef5350"/><line x1="362.3" x2="362.3" y1="168.9" y2="188.0" stroke="#26a69a" stroke-width="1"/><rect x="361.0" y="176.1" width="2.76" height="8.9" fill="#26a69a"/><line x1="366.8" x2="366.8" y1="161.9" y2="176.3" stroke="#26a69a" stroke-width="1"/><rect x="365.4" y="172.6" width="2.76" height="3.4" fill="#26a69a"/><line x1="371.3" x2="371.3" y1="168.8" y2="176.6" stroke="#26a69a" stroke-width="1"/><rect x="369.9" y="169.9" width="2.76" height="2.7" fill="#26a69a"/><line x1="375.7" x2="375.7" y1="163.6" y2="184.7" stroke="#ef5350" stroke-width="1"/><rect x="374.3" y="169.9" width="2.76" height="12.6" fill="#ef5350"/><line x1="380.2" x2="380.2" y1="169.2" y2="183.9" stroke="#26a69a" stroke-width="1"/><rect x="378.8" y="174.3" width="2.76" height="8.2" fill="#26a69a"/><line x1="384.6" x2="384.6" y1="171.8" y2="184.4" stroke="#26a69a" stroke-width="1"/><rect x="383.2" y="171.8" width="2.76" height="2.5" fill="#26a69a"/><line x1="389.1" x2="389.1" y1="158.2" y2="174.3" stroke="#ef5350" stroke-width="1"/><rect x="387.7" y="171.8" width="2.76" height="2.3" fill="#ef5350"/><line x1="393.5" x2="393.5" y1="161.6" y2="179.4" stroke="#26a69a" stroke-width="1"/><rect x="392.2" y="166.1" width="2.76" height="8.0" fill="#26a69a"/><line x1="398.0" x2="398.0" y1="159.5" y2="170.3" stroke="#ef5350" stroke-width="1"/><rect x="396.6" y="166.1" width="2.76" height="3.6" fill="#ef5350"/><line x1="402.5" x2="402.5" y1="166.2" y2="170.3" stroke="#26a69a" stroke-width="1"/><rect x="401.1" y="168.1" width="2.76" height="1.6" fill="#26a69a"/><line x1="406.9" x2="406.9" y1="152.3" y2="168.1" stroke="#26a69a" stroke-width="1"/><rect x="405.5" y="161.6" width="2.76" height="6.5" fill="#26a69a"/><line x1="411.4" x2="411.4" y1="129.4" y2="163.9" stroke="#26a69a" stroke-width="1"/><rect x="410.0" y="132.6" width="2.76" height="29.0" fill="#26a69a"/><line x1="415.8" x2="415.8" y1="115.3" y2="135.8" stroke="#26a69a" stroke-width="1"/><rect x="414.4" y="130.9" width="2.76" height="1.7" fill="#26a69a"/><line x1="420.3" x2="420.3" y1="71.0" y2="130.9" stroke="#26a69a" stroke-width="1"/><rect x="418.9" y="87.0" width="2.76" height="43.9" fill="#26a69a"/><line x1="424.7" x2="424.7" y1="61.3" y2="89.8" stroke="#26a69a" stroke-width="1"/><rect x="423.4" y="81.6" width="2.76" height="5.5" fill="#26a69a"/><line x1="429.2" x2="429.2" y1="69.1" y2="105.7" stroke="#26a69a" stroke-width="1"/><rect x="427.8" y="73.8" width="2.76" height="7.8" fill="#26a69a"/><line x1="433.7" x2="433.7" y1="48.3" y2="86.1" stroke="#ef5350" stroke-width="1"/><rect x="432.3" y="73.8" width="2.76" height="1.5" fill="#ef5350"/><line x1="438.1" x2="438.1" y1="66.8" y2="89.8" stroke="#ef5350" stroke-width="1"/><rect x="436.7" y="75.2" width="2.76" height="7.0" fill="#ef5350"/><line x1="442.6" x2="442.6" y1="82.2" y2="117.7" stroke="#ef5350" stroke-width="1"/><rect x="441.2" y="82.2" width="2.76" height="32.0" fill="#ef5350"/><line x1="447.0" x2="447.0" y1="112.0" y2="159.2" stroke="#ef5350" stroke-width="1"/><rect x="445.6" y="114.2" width="2.76" height="40.7" fill="#ef5350"/><line x1="451.5" x2="451.5" y1="136.7" y2="162.8" stroke="#26a69a" stroke-width="1"/><rect x="450.1" y="138.9" width="2.76" height="16.0" fill="#26a69a"/><line x1="455.9" x2="455.9" y1="88.7" y2="138.9" stroke="#26a69a" stroke-width="1"/><rect x="454.6" y="104.4" width="2.76" height="34.5" fill="#26a69a"/><line x1="460.4" x2="460.4" y1="86.9" y2="111.1" stroke="#ef5350" stroke-width="1"/><rect x="459.0" y="104.4" width="2.76" height="1.5" fill="#ef5350"/><line x1="464.9" x2="464.9" y1="86.5" y2="115.5" stroke="#26a69a" stroke-width="1"/><rect x="463.5" y="103.8" width="2.76" height="2.1" fill="#26a69a"/><line x1="469.3" x2="469.3" y1="103.8" y2="135.7" stroke="#ef5350" stroke-width="1"/><rect x="467.9" y="103.8" width="2.76" height="17.8" fill="#ef5350"/><line x1="473.8" x2="473.8" y1="106.4" y2="122.8" stroke="#26a69a" stroke-width="1"/><rect x="472.4" y="112.3" width="2.76" height="9.3" fill="#26a69a"/><line x1="478.2" x2="478.2" y1="101.3" y2="125.6" stroke="#26a69a" stroke-width="1"/><rect x="476.8" y="104.6" width="2.76" height="7.7" fill="#26a69a"/><line x1="482.7" x2="482.7" y1="104.6" y2="131.8" stroke="#ef5350" stroke-width="1"/><rect x="481.3" y="104.6" width="2.76" height="23.4" fill="#ef5350"/><line x1="487.1" x2="487.1" y1="81.3" y2="132.4" stroke="#26a69a" stroke-width="1"/><rect x="485.8" y="88.4" width="2.76" height="39.6" fill="#26a69a"/><line x1="491.6" x2="491.6" y1="68.1" y2="161.5" stroke="#ef5350" stroke-width="1"/><rect x="490.2" y="88.4" width="2.76" height="57.1" fill="#ef5350"/><line x1="496.1" x2="496.1" y1="145.1" y2="177.9" stroke="#ef5350" stroke-width="1"/><rect x="494.7" y="145.5" width="2.76" height="27.7" fill="#ef5350"/><line x1="500.5" x2="500.5" y1="168.4" y2="193.3" stroke="#26a69a" stroke-width="1"/><rect x="499.1" y="170.0" width="2.76" height="3.2" fill="#26a69a"/><line x1="505.0" x2="505.0" y1="159.8" y2="176.9" stroke="#26a69a" stroke-width="1"/><rect x="503.6" y="160.7" width="2.76" height="9.2" fill="#26a69a"/><line x1="509.4" x2="509.4" y1="143.8" y2="167.0" stroke="#26a69a" stroke-width="1"/><rect x="508.0" y="143.9" width="2.76" height="16.9" fill="#26a69a"/><line x1="513.9" x2="513.9" y1="136.2" y2="152.2" stroke="#26a69a" stroke-width="1"/><rect x="512.5" y="140.4" width="2.76" height="3.5" fill="#26a69a"/><line x1="518.3" x2="518.3" y1="130.1" y2="145.3" stroke="#26a69a" stroke-width="1"/><rect x="517.0" y="135.6" width="2.76" height="4.8" fill="#26a69a"/><line x1="522.8" x2="522.8" y1="120.4" y2="142.6" stroke="#26a69a" stroke-width="1"/><rect x="521.4" y="123.2" width="2.76" height="12.5" fill="#26a69a"/><line x1="527.3" x2="527.3" y1="118.5" y2="130.7" stroke="#ef5350" stroke-width="1"/><rect x="525.9" y="123.2" width="2.76" height="1.0" fill="#ef5350"/><line x1="531.7" x2="531.7" y1="115.0" y2="139.4" stroke="#ef5350" stroke-width="1"/><rect x="530.3" y="124.2" width="2.76" height="13.3" fill="#ef5350"/><line x1="536.2" x2="536.2" y1="122.2" y2="137.5" stroke="#26a69a" stroke-width="1"/><rect x="534.8" y="127.7" width="2.76" height="9.8" fill="#26a69a"/><line x1="540.6" x2="540.6" y1="111.0" y2="148.5" stroke="#ef5350" stroke-width="1"/><rect x="539.2" y="127.7" width="2.76" height="19.2" fill="#ef5350"/><line x1="545.1" x2="545.1" y1="137.0" y2="159.4" stroke="#ef5350" stroke-width="1"/><rect x="543.7" y="146.8" width="2.76" height="6.9" fill="#ef5350"/><line x1="549.5" x2="549.5" y1="149.6" y2="169.0" stroke="#ef5350" stroke-width="1"/><rect x="548.2" y="153.8" width="2.76" height="3.5" fill="#ef5350"/><line x1="554.0" x2="554.0" y1="147.2" y2="157.2" stroke="#26a69a" stroke-width="1"/><rect x="552.6" y="148.9" width="2.76" height="8.3" fill="#26a69a"/><line x1="558.5" x2="558.5" y1="140.0" y2="156.1" stroke="#ef5350" stroke-width="1"/><rect x="557.1" y="148.9" width="2.76" height="7.1" fill="#ef5350"/><line x1="562.9" x2="562.9" y1="156.0" y2="184.1" stroke="#ef5350" stroke-width="1"/><rect x="561.5" y="156.0" width="2.76" height="14.4" fill="#ef5350"/><line x1="567.4" x2="567.4" y1="146.8" y2="172.9" stroke="#26a69a" stroke-width="1"/><rect x="566.0" y="151.6" width="2.76" height="18.8" fill="#26a69a"/><line x1="571.8" x2="571.8" y1="117.2" y2="151.6" stroke="#26a69a" stroke-width="1"/><rect x="570.4" y="118.5" width="2.76" height="33.1" fill="#26a69a"/><line x1="576.3" x2="576.3" y1="106.9" y2="138.4" stroke="#ef5350" stroke-width="1"/><rect x="574.9" y="118.5" width="2.76" height="3.0" fill="#ef5350"/><line x1="580.7" x2="580.7" y1="102.2" y2="123.3" stroke="#26a69a" stroke-width="1"/><rect x="579.4" y="110.2" width="2.76" height="11.3" fill="#26a69a"/><line x1="585.2" x2="585.2" y1="92.7" y2="113.2" stroke="#26a69a" stroke-width="1"/><rect x="583.8" y="101.0" width="2.76" height="9.2" fill="#26a69a"/><line x1="589.7" x2="589.7" y1="91.6" y2="110.6" stroke="#ef5350" stroke-width="1"/><rect x="588.3" y="101.0" width="2.76" height="3.1" fill="#ef5350"/><line x1="594.1" x2="594.1" y1="84.5" y2="120.3" stroke="#26a69a" stroke-width="1"/><rect x="592.7" y="96.2" width="2.76" height="7.9" fill="#26a69a"/><line x1="598.6" x2="598.6" y1="74.8" y2="122.6" stroke="#26a69a" stroke-width="1"/><rect x="597.2" y="75.2" width="2.76" height="20.9" fill="#26a69a"/><line x1="603.0" x2="603.0" y1="69.5" y2="139.6" stroke="#ef5350" stroke-width="1"/><rect x="601.6" y="75.2" width="2.76" height="63.6" fill="#ef5350"/><line x1="607.5" x2="607.5" y1="130.7" y2="150.6" stroke="#ef5350" stroke-width="1"/><rect x="606.1" y="138.8" width="2.76" height="9.7" fill="#ef5350"/><line x1="611.9" x2="611.9" y1="138.0" y2="155.8" stroke="#26a69a" stroke-width="1"/><rect x="610.6" y="139.4" width="2.76" height="9.0" fill="#26a69a"/><line x1="616.4" x2="616.4" y1="133.2" y2="155.8" stroke="#ef5350" stroke-width="1"/><rect x="615.0" y="139.4" width="2.76" height="16.3" fill="#ef5350"/><line x1="620.9" x2="620.9" y1="143.1" y2="161.6" stroke="#26a69a" stroke-width="1"/><rect x="619.5" y="146.9" width="2.76" height="8.8" fill="#26a69a"/><line x1="625.3" x2="625.3" y1="143.6" y2="150.6" stroke="#ef5350" stroke-width="1"/><rect x="623.9" y="146.9" width="2.76" height="1.0" fill="#ef5350"/><line x1="629.8" x2="629.8" y1="146.2" y2="155.8" stroke="#26a69a" stroke-width="1"/><rect x="628.4" y="147.2" width="2.76" height="1.0" fill="#26a69a"/><path d="M10.2,298.1L14.7,297.5L19.1,292.0L23.6,283.9L28.1,278.4L32.5,283.9L37.0,286.9L41.4,286.7L45.9,283.5L50.3,281.2L54.8,281.4L59.3,278.7L63.7,274.6L68.2,269.3L72.6,264.1L77.1,249.0L81.5,237.1L86.0,228.7L90.5,221.3L94.9,216.1L99.4,208.8L103.8,200.7L108.3,195.2L112.7,188.6L117.2,178.9L121.7,165.9L126.1,138.3L130.6,123.2L135.0,110.3L139.5,95.6L143.9,83.3L148.4,71.0L152.9,61.8L157.3,52.3L161.8,39.1L166.2,31.8L170.7,39.7L175.1,52.7L179.6,68.2L184.1,88.6L188.5,115.9L193.0,140.7L197.4,161.9L201.9,180.5L206.3,197.5L210.8,213.9L215.3,227.0L219.7,239.0L224.2,250.3L228.6,259.0L233.1,268.0L237.5,274.9L242.0,281.6L246.5,286.9L250.9,290.2L255.4,292.6L259.8,293.4L264.3,292.6L268.7,287.8L273.2,282.6L277.7,277.3L282.1,271.1L286.6,264.5L291.0,255.6L295.5,247.4L299.9,240.7L304.4,235.3L308.9,230.2L313.3,224.3L317.8,218.5L322.2,212.4L326.7,206.3L331.1,200.7L335.6,194.8L340.1,189.9L344.5,184.0L349.0,176.7L353.4,169.4L357.9,163.1L362.3,155.9L366.8,149.1L371.3,142.8L375.7,140.2L380.2,136.7L384.6,133.6L389.1,131.9L393.5,129.5L398.0,128.6L402.5,128.3L406.9,127.3L411.4,121.3L415.8,116.2L420.3,103.6L424.7,91.7L429.2,80.2L433.7,70.7L438.1,64.4L442.6,65.9L447.0,76.1L451.5,83.0L455.9,82.9L460.4,83.8L464.9,84.9L469.3,90.0L473.8,93.4L478.2,95.4L482.7,102.3L487.1,101.0L491.6,111.7L496.1,127.2L500.5,140.8L505.0,151.3L509.4,157.5L513.9,162.3L518.3,165.6L522.8,165.9L527.3,166.1L531.7,168.6L536.2,168.6L540.6,172.0L545.1,176.1L549.5,180.0L554.0,181.4L558.5,183.5L562.9,187.8L567.4,187.4L571.8,179.8L576.3,173.0L580.7,164.0L585.2,153.6L589.7,144.3L594.1,133.9L598.6,120.0L603.0,120.0L607.5,121.6L611.9,121.2L616.4,123.9L620.9,124.6L625.3,125.3L629.8,125.9" fill="none" stroke="rgba(255,235,59,1)" stroke-width="2" stroke-linejoin="round"/></svg>