<!-- b131bf7b33e88a2b --><svg xmlns="http://www.w3.org/2000/svg" viewBox="0 0 640 360" width="640" height="360" preserveAspectRatio="none"><rect width="640" height="360" fill="#0f0f10"/><line x1="0" x2="640" y1="60.0" y2="60.0" stroke="#1d1d20" stroke-width="1"/><line x1="0" x2="640" y1="120.0" y2="120.0" stroke="#1d1d20" stroke-width="1"/><line x1="0" x2="640" y1="180.0" y2="180.0" stroke="#1d1d20" stroke-width="1"/><line x1="0" x2="640" y1="240.0" y2="240.0" stroke="#1d1d20" stroke-width="1"/><line x1="0" x2="640" y1="300.0" y2="300.0" stroke="#1d1d20" stroke-width="1"/><line x1="0" x2="640" y1="229" y2="229" stroke="#2a2a2e" stroke-width="1"/><rect x="8.0" y="0" width="4.46" height="360" fill="rgba(251,113,133,0.04)"/><rect x="12.5" y="0" width="4.46" height="360" fill="rgba(251,113,133,0.04)"/><rect x="16.9" y="0" width="4.46" height="360" fill="rgba(161,161,170,0.04)"/><rect x="21.4" y="0" width="4.46" height="360" fill="rgba(34,211,238,0.04)"/><rect x="25.8" y="0" width="4.46" height="360" fill="rgba(34,211,238,0.04)"/><rect x="30.3" y="0" width="4.46" height="360" fill="rgba(34,211,238,0.04)"/><rect x="34.7" y="0" width="4.46" height="360" fill="rgba(161,161,170,0.04)"/><rect x="39.2" y="0" width="4.46" height="360" fill="rgba(161,161,170,0.04)"/><rect x="43.7" y="0" width="4.46" height="360" fill="rgba(161,161,170,0.04)"/><rect x="48.1" y="0" width="4.46" height="360" fill="rgba(161,161,170,0.04)"/><rect x="52.6" y="0" width="4.46" height="360" fill="rgba(161,161,170,0.04)"/><rect x="57.0" y="0" width="4.46" height="360" fill="rgba(34,211,238,0.04)"/><rect x="61.5" y="0" width="4.46" height="360" fill="rgba(34,211,238,0.04)"/><rect x="65.9" y="0" width="4.46" height="360" fill="rgba(34,211,238,0.04)"/><rect x="70.4" y="0" width="4.46" height="360" fill="rgba(34,211,238,0.04)"/><rect x="74.9" y="0" width="4.46" height="360" fill="rgba(34,211,238,0.04)"/><rect x="79.3" y="0" width="4.46" height="360" fill="rgba(34,211,238,0.04)"/><rect x="83.8" y="0" width="4.46" height="360" fill="rgba(34,211,238,0.04)"/><rect x="88.2" y="0" width="4.46" height="360" fill="rgba(34,211,238,0.04)"/><rect x="92.7" y="0" width="4.46" height="360" fill="rgba(34,211,238,0.04)"/><rect x="97.1" y="0" width="4.46" height="360" fill="rgba(34,211,238,0.04)"/><rect x="101.6" y="0" width="4.46" height="360" fill="rgba(34,211,238,0.04)"/><rect x="106.1" y="0" width="4.46" height="360" fill="rgba(34,211,238,0.04)"/><rect x="110.5" y="0" width="4.46" height="360" fill="rgba(34,211,238,0.04)"/><rect x="115.0" y="0" width="4.46" height="360" fill="rgba(34,211,238,0.04)"/><rect x="119.4" y="0" width="4.46" height="360" fill="rgba(34,211,238,0.04)"/><rect x="123.9" y="0" width="4.46" height="360" fill="rgba(34,211,238,0.04)"/><rect x="128.3" y="0" width="4.46" height="360" fill="rgba(34,211,238,0.04)"/><rect x="132.8" y="0" width="4.46" height="360" fill="rgba(34,211,238,0.04)"/><rect x="137.3" y="0" width="4.46" height="360" fill="rgba(34,211,238,0.04)"/><rect x="141.7" y="0" width="4.46" height="360" fill="rgba(34,211,238,0.04)"/><rect x="146.2" y="0" width="4.46" height="360" fill="rgba(34,211,238,0.04)"/><rect x="150.6" y="0" width="4.46" height="360" fill="rgba(34,211,238,0.04)"/><rect x="155.1" y="0" width="4.46" height="360" fill="rgba(34,211,238,0.04)"/><rect x="159.5" y="0" width="4.46" height="360" fill="rgba(34,211,238,0.04)"/><rect x="164.0" y="0" width="4.46" height="360" fill="rgba(34,211,238,0.04)"/><rect x="168.5" y="0" width="4.46" height="360" fill="rgba(161,161,170,0.04)"/><rect x="172.9" y="0" width="4.46" height="360" fill="rgba(161,161,170,0.04)"/><rect x="177.4" y="0" width="4.46" height="360" fill="rgba(161,161,170,0.04)"/><rect x="181.8" y="0" width="4.46" height="360" fill="rgba(251,113,133,0.04)"/><rect x="186.3" y="0" width="4.46" height="360" fill="rgba(251,113,133,0.04)"/><rect x="190.7" y="0" width="4.46" height="360" fill="rgba(251,113,133,0.04)"/><rect x="195.2" y="0" width="4.46" height="360" fill="rgba(251,113,133,0.04)"/><rect x="199.7" y="0" width="4.46" height="360" fill="rgba(251,113,133,0.04)"/><rect x="204.1" y="0" width="4.46" height="360" fill="rgba(251,113,133,0.04)"/><rect x="208.6" y="0" width="4.46" height="360" fill="rgba(251,113,133,0.04)"/><rect x="213.0" y="0" width="4.46" height="360" fill="rgba(251,113,133,0.04)"/><rect x="217.5" y="0" width="4.46" height="360" fill="rgba(251,113,133,0.04)"/><rect x="221.9" y="0" width="4.46" height="360" fill="rgba(251,113,133,0.04)"/><rect x="226.4" y="0" width="4.46" height="360" fill="rgba(251,113,133,0.04)"/><rect x="230.9" y="0" width="4.46" height="360" fill="rgba(251,113,133,0.04)"/><rect x="235.3" y="0" width="4.46" height="360" fill="rgba(251,113,133,0.04)"/><rect x="239.8" y="0" width="4.46" height="360" fill="rgba(251,113,133,0.04)"/><rect x="244.2" y="0" width="4.46" height="360" fill="rgba(251,113,133,0.04)"/><rect x="248.7" y="0" width="4.46" height="360" fill="rgba(251,113,133,0.04)"/><rect x="253.1" y="0" width="4.46" height="360" fill="rgba(251,113,133,0.04)"/><rect x="257.6" y="0" width="4.46" height="360" fill="rgba(251,113,133,0.04)"/><rect x="262.1" y="0" width="4.46" height="360" fill="rgba(251,113,133,0.04)"/><rect x="266.5" y="0" width="4.46" height="360" fill="rgba(161,161,170,0.04)"/><rect x="271.0" y="0" width="4.46" height="360" fill="rgba(161,161,170,0.04)"/><rect x="275.4" y="0" width="4.46" height="360" fill="rgba(161,161,170,0.04)"/><rect x="279.9" y="0" width="4.46" height="360" fill="rgba(161,161,170,0.04)"/><rect x="284.3" y="0" width="4.46" height="360" fill="rgba(34,211,238,0.04)"/><rect x="288.8" y="0" width="4.46" height="360" fill="rgba(34,211,238,0.04)"/><rect x="293.3" y="0" width="4.46" height="360" fill="rgba(34,211,238,0.04)"/><rect x="297.7" y="0" width="4.46" height="360" fill="rgba(34,211,238,0.04)"/><rect x="302.2" y="0" width="4.46" height="360" fill="rgba(34,211,238,0.04)"/><rect x="306.6" y="0" width="4.46" height="360" fill="rgba(161,161,170,0.04)"/><rect x="311.1" y="0" width="4.46" height="360" fill="rgba(161,161,170,0.04)"/><rect x="315.5" y="0" width="4.46" height="360" fill="rgba(161,161,170,0.04)"/><rect x="320.0" y="0" width="4.46" height="360" fill="rgba(161,161,170,0.04)"/><rect x="324.5" y="0" width="4.46" height="360" fill="rgba(161,161,170,0.04)"/><rect x="328.9" y="0" width="4.46" height="360" fill="rgba(161,161,170,0.04)"/><rect x="333.4" y="0" width="4.46" height="360" fill="rgba(161,161,170,0.04)"/><rect x="337.8" y="0" width="4.46" height="360" fill="rgba(161,161,170,0.04)"/><rect x="342.3" y="0" width="4.46" height="360" fill="rgba(34,211,238,0.04)"/><rect x="346.7" y="0" width="4.46" height="360" fill="rgba(34,211,238,0.04)"/><rect x="351.2" y="0" width="4.46" height="360" fill="rgba(34,211,238,0.04)"/><rect x="355.7" y="0" width="4.46" height="360" fill="rgba(34,211,238,0.04)"/><rect x="360.1" y="0" width="4.46" height="360" fill="rgba(34,211,238,0.04)"/><rect x="364.6" y="0" width="4.46" height="360" fill="rgba(34,211,238,0.04)"/><rect x="369.0" y="0" width="4.46" height="360" fill="rgba(34,211,238,0.04)"/><rect x="373.5" y="0" width="4.46" height="360" fill="rgba(34,211,238,0.04)"/><rect x="377.9" y="0" width="4.46" height="360" fill="rgba(34,211,238,0.04)"/><rect x="382.4" y="0" width="4.46" height="360" fill="rgba(34,211,238,0.04)"/><rect x="386.9" y="0" width="4.46" height="360" fill="rgba(34,211,238,0.04)"/><rect x="391.3" y="0" width="4.46" height="360" fill="rgba(34,211,238,0.04)"/><rect x="395.8" y="0" width="4.46" height="360" fill="rgba(34,211,238,0.04)"/><rect x="400.2" y="0" width="4.46" height="360" fill="rgba(34,211,238,0.04)"/><rect x="404.7" y="0" width="4.46" height="360" fill="rgba(34,211,238,0.04)"/><rect x="409.1" y="0" width="4.46" height="360" fill="rgba(34,211,238,0.04)"/><rect x="413.6" y="0" width="4.46" height="360" fill="rgba(34,211,238,0.04)"/><rect x="418.1" y="0" width="4.46" height="360" fill="rgba(34,211,238,0.04)"/><rect x="422.5" y="0" width="4.46" height="360" fill="rgba(34,211,238,0.04)"/><rect x="427.0" y="0" width="4.46" height="360" fill="rgba(34,211,238,0.04)"/><rect x="431.4" y="0" width="4.46" height="360" fill="rgba(34,211,238,0.04)"/><rect x="435.9" y="0" width="4.46" height="360" fill="rgba(34,211,238,0.04)"/><rect x="440.3" y="0" width="4.46" height="360" fill="rgba(34,211,238,0.04)"/><rect x="444.8" y="0" width="4.46" height="360" fill="rgba(34,211,238,0.04)"/><rect x="449.3" y="0" width="4.46" height="360" fill="rgba(34,211,238,0.04)"/><rect x="453.7" y="0" width="4.46" height="360" fill="rgba(34,211,238,0.04)"/><rect x="458.2" y="0" width="4.46" height="360" fill="rgba(34,211,238,0.04)"/><rect x="462.6" y="0" width="4.46" height="360" fill="rgba(34,211,238,0.04)"/><rect x="467.1" y="0" width="4.46" height="360" fill="rgba(34,211,238,0.04)"/><rect x="471.5" y="0" width="4.46" height="360" fill="rgba(34,211,238,0.04)"/><rect x="476.0" y="0" width="4.46" height="360" fill="rgba(34,211,238,0.04)"/><rect x="480.5" y="0" width="4.46" height="360" fill="rgba(34,211,238,0.04)"/><rect x="484.9" y="0" width="4.46" height="360" fill="rgba(34,211,238,0.04)"/><rect x="489.4" y="0" width="4.46" height="360" fill="rgba(161,161,170,0.04)"/><rect x="493.8" y="0" width="4.46" height="360" fill="rgba(251,113,133,0.04)"/><rect x="498.3" y="0" width="4.46" height="360" fill="rgba(251,113,133,0.04)"/><rect x="502.7" y="0" width="4.46" height="360" fill="rgba(251,113,133,0.04)"/><rect x="507.2" y="0" width="4.46" height="360" fill="rgba(161,161,170,0.04)"/><rect x="511.7" y="0" width="4.46" height="360" fill="rgba(161,161,170,0.04)"/><rect x="516.1" y="0" width="4.46" height="360" fill="rgba(161,161,170,0.04)"/><rect x="520.6" y="0" width="4.46" height="360" fill="rgba(161,161,170,0.04)"/><rect x="525.0" y="0" width="4.46" height="360" fill="rgba(34,211,238,0.04)"/><rect x="529.5" y="0" width="4.46" height="360" fill="rgba(34,211,238,0.04)"/><rect x="533.9" y="0" width="4.46" height="360" fill="rgba(34,211,238,0.04)"/><rect x="538.4" y="0" width="4.46" height="360" fill="rgba(161,161,170,0.04)"/><rect x="542.9" y="0" width="4.46" height="360" fill="rgba(161,161,170,0.04)"/><rect x="547.3" y="0" width="4.46" height="360" fill="rgba(251,113,133,0.04)"/><rect x="551.8" y="0" width="4.46" height="360" fill="rgba(251,113,133,0.04)"/><rect x="556.2" y="0" width="4.46" height="360" fill="rgba(251,113,133,0.04)"/><rect x="560.7" y="0" width="4.46" height="360" fill="rgba(251,113,133,0.04)"/><rect x="565.1" y="0" width="4.46" height="360" fill="rgba(251,113,133,0.04)"/><rect x="569.6" y="0" width="4.46" height="360" fill="rgba(161,161,170,0.04)"/><rect x="574.1" y="0" width="4.46" height="360" fill="rgba(161,161,170,0.04)"/><rect x="578.5" y="0" width="4.46" height="360" fill="rgba(34,211,238,0.04)"/><rect x="583.0" y="0" width="4.46" height="360" fill="rgba(34,211,238,0.04)"/><rect x="587.4" y="0" width="4.46" height="360" fill="rgba(34,211,238,0.04)"/><rect x="591.9" y="0" width="4.46" height="360" fill="rgba(34,211,238,0.04)"/><rect x="596.3" y="0" width="4.46" height="360" fill="rgba(34,211,238,0.04)"/><rect x="600.8" y="0" width="4.46" height="360" fill="rgba(161,161,170,0.04)"/><rect x="605.3" y="0" width="4.46" height="360" fill="rgba(161,161,170,0.04)"/><rect x="609.7" y="0" width="4.46" height="360" fill="rgba(161,161,170,0.04)"/><rect x="614.2" y="0" width="4.46" height="360" fill="rgba(251,113,133,0.04)"/><rect x="618.6" y="0" width="4.46" height="360" fill="rgba(251,113,133,0.04)"/><rect x="623.1" y="0" width="4.46" height="360" fill="rgba(251,113,133,0.04)"/><rect x="627.5" y="0" width="4.46" height="360" fill="rgba(251,113,133,0.04)"/><polygon points="10.2,312.1 14.7,307.2 19.1,294.5 23.6,278.9 28.1,275.5 32.5,288.4 37.0,296.1 41.4,299.2 45.9,300.0 50.3,299.5 54.8,291.4 59.3,284.8 63.7,280.1 68.2,278.2 72.6,277.5 77.1,266.7 81.5,271.0 86.0,273.7 90.5,270.6 94.9,271.3 99.4,275.5 103.8,273.7 108.3,272.3 112.7,269.6 117.2,266.4 121.7,264.4 126.1,260.0 130.6,261.7 135.0,262.3 139.5,262.9 143.9,263.6 148.4,270.1 152.9,267.1 157.3,264.4 161.8,262.3 166.2,264.6 170.7,294.9 175.1,298.5 179.6,303.8 184.1,311.1 188.5,319.3 193.0,320.4 197.4,317.8 201.9,317.2 206.3,315.5 210.8,311.4 215.3,309.4 219.7,310.1 224.2,312.2 228.6,311.2 233.1,311.6 237.5,312.3 242.0,314.1 246.5,313.7 250.9,314.0 255.4,312.5 259.8,312.4 264.3,309.1 268.7,299.8 273.2,296.4 277.7,293.0 282.1,289.6 286.6,285.7 291.0,280.6 295.5,279.7 299.9,283.0 304.4,289.5 308.9,295.6 313.3,303.0 317.8,305.8 322.2,303.0 326.7,298.3 331.1,295.0 335.6,290.8 340.1,289.6 344.5,281.9 349.0,273.1 353.4,268.6 357.9,267.3 362.3,264.7 366.8,264.1 371.3,264.3 375.7,270.1 380.2,268.6 384.6,269.6 389.1,272.0 393.5,270.6 398.0,267.6 402.5,267.9 406.9,267.1 411.4,261.7 415.8,260.7 420.3,258.1 424.7,257.6 429.2,256.9 433.7,258.9 438.1,259.8 442.6,271.3 447.0,281.2 451.5,285.1 455.9,282.3 460.4,281.6 464.9,276.0 469.3,271.3 473.8,269.6 478.2,274.1 482.7,282.7 487.1,274.8 491.6,301.3 496.1,310.3 500.5,315.2 505.0,312.5 509.4,303.9 513.9,299.2 518.3,300.2 522.8,291.5 527.3,284.9 531.7,289.8 536.2,286.7 540.6,295.1 545.1,305.9 549.5,311.1 554.0,309.3 558.5,312.5 562.9,314.4 567.4,309.2 571.8,296.0 576.3,287.6 580.7,276.9 585.2,270.9 589.7,268.2 594.1,269.9 598.6,268.0 603.0,295.3 607.5,301.2 611.9,300.8 616.4,311.9 620.9,312.1 625.3,308.6 629.8,306.6 629.8,298.5 625.3,298.5 620.9,298.5 616.4,298.5 611.9,298.5 607.5,298.5 603.0,298.5 598.6,298.5 594.1,298.5 589.7,298.5 585.2,298.5 580.7,298.5 576.3,298.5 571.8,298.5 567.4,298.5 562.9,298.5 558.5,298.5 554.0,298.5 549.5,298.5 545.1,298.5 540.6,298.5 536.2,298.5 531.7,298.5 527.3,298.5 522.8,298.5 518.3,298.5 513.9,298.5 509.4,298.5 505.0,298.5 500.5,298.5 496.1,298.5 491.6,298.5 487.1,298.5 482.7,298.5 478.2,298.5 473.8,298.5 469.3,298.5 464.9,298.5 460.4,298.5 455.9,298.5 451.5,298.5 447.0,298.5 442.6,298.5 438.1,298.5 433.7,298.5 429.2,298.5 424.7,298.5 420.3,298.5 415.8,298.5 411.4,298.5 406.9,298.5 402.5,298.5 398.0,298.5 393.5,298.5 389.1,298.5 384.6,298.5 380.2,298.5 375.7,298.5 371.3,298.5 366.8,298.5 362.3,298.5 357.9,298.5 353.4,298.5 349.0,298.5 344.5,298.5 340.1,298.5 335.6,298.5 331.1,298.5 326.7,298.5 322.2,298.5 317.8,298.5 313.3,298.5 308.9,298.5 304.4,298.5 299.9,298.5 295.5,298.5 291.0,298.5 286.6,298.5 282.1,298.5 277.7,298.5 273.2,298.5 268.7,298.5 264.3,298.5 259.8,298.5 255.4,298.5 250.9,298.5 246.5,298.5 242.0,298.5 237.5,298.5 233.1,298.5 228.6,298.5 224.2,298.5 219.7,298.5 215.3,298.5 210.8,298.5 206.3,298.5 201.9,298.5 197.4,298.5 193.0,298.5 188.5,298.5 184.1,298.5 179.6,298.5 175.1,298.5 170.7,298.5 166.2,298.5 161.8,298.5 157.3,298.5 152.9,298.5 148.4,298.5 143.9,298.5 139.5,298.5 135.0,298.5 130.6,298.5 126.1,298.5 121.7,298.5 117.2,298.5 112.7,298.5 108.3,298.5 103.8,298.5 99.4,298.5 94.9,298.5 90.5,298.5 86.0,298.5 81.5,298.5 77.1,298.5 72.6,298.5 68.2,298.5 63.7,298.5 59.3,298.5 54.8,298.5 50.3,298.5 45.9,298.5 41.4,298.5 37.0,298.5 32.5,298.5 28.1,298.5 23.6,298.5 19.1,298.5 14.7,298.5 10.2,298.5" fill="null"/><line x1="10.2" x2="10.2" y1="189.2" y2="201.3" stroke="#ef5350" stroke-width="1"/><rect x="8.8" y="196.5" width="2.76" height="1.0" fill="#ef5350"/><line x1="14.7" x2="14.7" y1="184.0" y2="200.5" stroke="#26a69a" stroke-width="1"/><rect x="13.3" y="185.3" width="2.76" height="11.9" fill="#26a69a"/><line x1="19.1" x2="19.1" y1="164.5" y2="186.8" stroke="#26a69a" stroke-width="1"/><rect x="17.8" y="169.7" width="2.76" height="15.6" fill="#26a69a"/><line x1="23.6" x2="23.6" y1="157.6" y2="173.2" stroke="#26a69a" stroke-width="1"/><rect x="22.2" y="160.3" width="2.76" height="9.4" fill="#26a69a"/><line x1="28.1" x2="28.1" y1="154.5" y2="167.7" stroke="#ef5350" stroke-width="1"/><rect x="26.7" y="160.3" width="2.76" height="6.0" fill="#ef5350"/><line x1="32.5" x2="32.5" y1="163.2" y2="203.5" stroke="#ef5350" stroke-width="1"/><rect x="31.1" y="166.3" width="2.76" height="33.0" fill="#ef5350"/><line x1="37.0" x2="37.0" y1="193.2" y2="211.8" stroke="#26a69a" stroke-width="1"/><rect x="35.6" y="193.7" width="2.76" height="5.6" fill="#26a69a"/><line x1="41.4" x2="41.4" y1="178.5" y2="194.2" stroke="#26a69a" stroke-width="1"/><rect x="40.0" y="184.3" width="2.76" height="9.4" fill="#26a69a"/><line x1="45.9" x2="45.9" y1="170.6" y2="200.5" stroke="#26a69a" stroke-width="1"/><rect x="44.5" y="175.2" width="2.76" height="9.1" fill="#26a69a"/><line x1="50.3" x2="50.3" y1="170.7" y2="182.9" stroke="#ef5350" stroke-width="1"/><rect x="49.0" y="175.2" width="2.76" height="1.9" fill="#ef5350"/><line x1="54.8" x2="54.8" y1="169.8" y2="188.1" stroke="#ef5350" stroke-width="1"/><rect x="53.4" y="177.1" width="2.76" height="7.2" fill="#ef5350"/><line x1="59.3" x2="59.3" y1="171.4" y2="197.9" stroke="#26a69a" stroke-width="1"/><rect x="57.9" y="175.7" width="2.76" height="8.6" fill="#26a69a"/><line x1="63.7" x2="63.7" y1="157.2" y2="191.9" stroke="#26a69a" stroke-width="1"/><rect x="62.3" y="170.0" width="2.76" height="5.7" fill="#26a69a"/><line x1="68.2" x2="68.2" y1="157.9" y2="181.1" stroke="#26a69a" stroke-width="1"/><rect x="66.8" y="165.2" width="2.76" height="4.8" fill="#26a69a"/><line x1="72.6" x2="72.6" y1="144.7" y2="170.8" stroke="#26a69a" stroke-width="1"/><rect x="71.2" y="164.0" width="2.76" height="1.3" fill="#26a69a"/><line x1="77.1" x2="77.1" y1="123.2" y2="164.2" stroke="#26a69a" stroke-width="1"/><rect x="75.7" y="131.0" width="2.76" height="33.0" fill="#26a69a"/><line x1="81.5" x2="81.5" y1="114.6" y2="151.3" stroke="#ef5350" stroke-width="1"/><rect x="80.2" y="131.0" width="2.76" height="5.4" fill="#ef5350"/><line x1="86.0" x2="86.0" y1="132.1" y2="146.6" stroke="#ef5350" stroke-width="1"/><rect x="84.6" y="136.4" width="2.76" height="6.9" fill="#ef5350"/><line x1="90.5" x2="90.5" y1="133.0" y2="147.0" stroke="#ef5350" stroke-width="1"/><rect x="89.1" y="143.3" width="2.76" height="1.0" fill="#ef5350"/><line x1="94.9" x2="94.9" y1="141.1" y2="150.2" stroke="#ef5350" stroke-width="1"/><rect x="93.5" y="143.6" width="2.76" height="3.9" fill="#ef5350"/><line x1="99.4" x2="99.4" y1="136.0" y2="147.6" stroke="#26a69a" stroke-width="1"/><rect x="98.0" y="138.5" width="2.76" height="8.9" fill="#26a69a"/><line x1="103.8" x2="103.8" y1="131.4" y2="143.4" stroke="#26a69a" stroke-width="1"/><rect x="102.4" y="132.7" width="2.76" height="5.8" fill="#26a69a"/><line x1="108.3" x2="108.3" y1="129.5" y2="140.6" stroke="#ef5350" stroke-width="1"/><rect x="106.9" y="132.7" width="2.76" height="4.8" fill="#ef5350"/><line x1="112.7" x2="112.7" y1="128.0" y2="148.7" stroke="#26a69a" stroke-width="1"/><rect x="111.4" y="131.1" width="2.76" height="6.4" fill="#26a69a"/><line x1="117.2" x2="117.2" y1="118.1" y2="133.6" stroke="#26a69a" stroke-width="1"/><rect x="115.8" y="118.1" width="2.76" height="12.9" fill="#26a69a"/><line x1="121.7" x2="121.7" y1="101.6" y2="118.6" stroke="#26a69a" stroke-width="1"/><rect x="120.3" y="103.3" width="2.76" height="14.8" fill="#26a69a"/><line x1="126.1" x2="126.1" y1="39.5" y2="105.8" stroke="#26a69a" stroke-width="1"/><rect x="124.7" y="51.5" width="2.76" height="51.9" fill="#26a69a"/><line x1="130.6" x2="130.6" y1="50.0" y2="84.7" stroke="#ef5350" stroke-width="1"/><rect x="129.2" y="51.5" width="2.76" height="29.5" fill="#ef5350"/><line x1="135.0" x2="135.0" y1="77.2" y2="85.6" stroke="#ef5350" stroke-width="1"/><rect x="133.6" y="81.0" width="2.76" height="1.0" fill="#ef5350"/><line x1="139.5" x2="139.5" y1="43.0" y2="90.9" stroke="#26a69a" stroke-width="1"/><rect x="138.1" y="69.3" width="2.76" height="12.0" fill="#26a69a"/><line x1="143.9" x2="143.9" y1="52.6" y2="80.1" stroke="#ef5350" stroke-width="1"/><rect x="142.6" y="69.3" width="2.76" height="1.0" fill="#ef5350"/><line x1="148.4" x2="148.4" y1="60.0" y2="74.9" stroke="#26a69a" stroke-width="1"/><rect x="147.0" y="63.6" width="2.76" height="6.4" fill="#26a69a"/><line x1="152.9" x2="152.9" y1="57.1" y2="71.8" stroke="#ef5350" stroke-width="1"/><rect x="151.5" y="63.6" width="2.76" height="2.9" fill="#ef5350"/><line x1="157.3" x2="157.3" y1="54.6" y2="66.5" stroke="#26a69a" stroke-width="1"/><rect x="155.9" y="59.9" width="2.76" height="6.6" fill="#26a69a"/><line x1="161.8" x2="161.8" y1="25.2" y2="66.1" stroke="#26a69a" stroke-width="1"/><rect x="160.4" y="42.3" width="2.76" height="17.6" fill="#26a69a"/><line x1="166.2" x2="166.2" y1="25.4" y2="56.8" stroke="#ef5350" stroke-width="1"/><rect x="164.8" y="42.3" width="2.76" height="10.9" fill="#ef5350"/><line x1="170.7" x2="170.7" y1="41.1" y2="107.4" stroke="#ef5350" stroke-width="1"/><rect x="169.3" y="53.2" width="2.76" height="42.3" fill="#ef5350"/><line x1="175.1" x2="175.1" y1="91.6" y2="118.6" stroke="#ef5350" stroke-width="1"/><rect x="173.8" y="95.5" width="2.76" height="14.9" fill="#ef5350"/><line x1="179.6" x2="179.6" y1="102.4" y2="125.4" stroke="#ef5350" stroke-width="1"/><rect x="178.2" y="110.4" width="2.76" height="8.4" fill="#ef5350"/><line x1="184.1" x2="184.1" y1="114.0" y2="148.3" stroke="#ef5350" stroke-width="1"/><rect x="182.7" y="118.8" width="2.76" height="16.7" fill="#ef5350"/><line x1="188.5" x2="188.5" y1="130.9" y2="177.8" stroke="#ef5350" stroke-width="1"/><rect x="187.1" y="135.5" width="2.76" height="24.7" fill="#ef5350"/><line x1="193.0" x2="193.0" y1="156.9" y2="173.1" stroke="#26a69a" stroke-width="1"/><rect x="191.6" y="157.7" width="2.76" height="2.4" fill="#26a69a"/><line x1="197.4" x2="197.4" y1="147.6" y2="162.0" stroke="#26a69a" stroke-width="1"/><rect x="196.0" y="151.2" width="2.76" height="6.5" fill="#26a69a"/><line x1="201.9" x2="201.9" y1="146.3" y2="152.8" stroke="#26a69a" stroke-width="1"/><rect x="200.5" y="147.5" width="2.76" height="3.7" fill="#26a69a"/><line x1="206.3" x2="206.3" y1="146.1" y2="151.3" stroke="#26a69a" stroke-width="1"/><rect x="205.0" y="146.6" width="2.76" height="1.0" fill="#26a69a"/><line x1="210.8" x2="210.8" y1="145.9" y2="150.2" stroke="#ef5350" stroke-width="1"/><rect x="209.4" y="146.6" width="2.76" height="2.0" fill="#ef5350"/><line x1="215.3" x2="215.3" y1="140.7" y2="151.0" stroke="#26a69a" stroke-width="1"/><rect x="213.9" y="142.4" width="2.76" height="6.2" fill="#26a69a"/><line x1="219.7" x2="219.7" y1="139.0" y2="144.4" stroke="#ef5350" stroke-width="1"/><rect x="218.3" y="142.4" width="2.76" height="1.0" fill="#ef5350"/><line x1="224.2" x2="224.2" y1="140.6" y2="144.4" stroke="#ef5350" stroke-width="1"/><rect x="222.8" y="142.8" width="2.76" height="1.6" fill="#ef5350"/><line x1="228.6" x2="228.6" y1="140.4" y2="147.7" stroke="#26a69a" stroke-width="1"/><rect x="227.2" y="140.4" width="2.76" height="4.0" fill="#26a69a"/><line x1="233.1" x2="233.1" y1="138.4" y2="147.7" stroke="#ef5350" stroke-width="1"/><rect x="231.7" y="140.4" width="2.76" height="4.7" fill="#ef5350"/><line x1="237.5" x2="237.5" y1="141.9" y2="146.3" stroke="#26a69a" stroke-width="1"/><rect x="236.2" y="142.4" width="2.76" height="2.7" fill="#26a69a"/><line x1="242.0" x2="242.0" y1="140.9" y2="146.7" stroke="#ef5350" stroke-width="1"/><rect x="240.6" y="142.4" width="2.76" height="3.7" fill="#ef5350"/><line x1="246.5" x2="246.5" y1="141.8" y2="146.1" stroke="#26a69a" stroke-width="1"/><rect x="245.1" y="145.6" width="2.76" height="1.0" fill="#26a69a"/><line x1="250.9" x2="250.9" y1="142.2" y2="146.4" stroke="#26a69a" stroke-width="1"/><rect x="249.5" y="143.7" width="2.76" height="2.0" fill="#26a69a"/><line x1="255.4" x2="255.4" y1="141.4" y2="145.0" stroke="#ef5350" stroke-width="1"/><rect x="254.0" y="143.7" width="2.76" height="1.0" fill="#ef5350"/><line x1="259.8" x2="259.8" y1="142.6" y2="145.4" stroke="#26a69a" stroke-width="1"/><rect x="258.4" y="143.0" width="2.76" height="1.7" fill="#26a69a"/><line x1="264.3" x2="264.3" y1="139.8" y2="143.2" stroke="#26a69a" stroke-width="1"/><rect x="262.9" y="141.5" width="2.76" height="1.5" fill="#26a69a"/><line x1="268.7" x2="268.7" y1="129.9" y2="141.5" stroke="#26a69a" stroke-width="1"/><rect x="267.4" y="131.6" width="2.76" height="9.9" fill="#26a69a"/><line x1="273.2" x2="273.2" y1="128.1" y2="136.2" stroke="#ef5350" stroke-width="1"/><rect x="271.8" y="131.6" width="2.76" height="1.0" fill="#ef5350"/><line x1="277.7" x2="277.7" y1="132.2" y2="137.2" stroke="#ef5350" stroke-width="1"/><rect x="276.3" y="132.2" width="2.76" height="1.2" fill="#ef5350"/><line x1="282.1" x2="282.1" y1="132.3" y2="136.6" stroke="#26a69a" stroke-width="1"/><rect x="280.7" y="132.3" width="2.76" height="1.1" fill="#26a69a"/><line x1="286.6" x2="286.6" y1="132.0" y2="136.1" stroke="#ef5350" stroke-width="1"/><rect x="285.2" y="132.3" width="2.76" height="1.0" fill="#ef5350"/><line x1="291.0" x2="291.0" y1="125.7" y2="133.7" stroke="#26a69a" stroke-width="1"/><rect x="289.6" y="125.7" width="2.76" height="6.8" fill="#26a69a"/><line x1="295.5" x2="295.5" y1="125.7" y2="129.8" stroke="#ef5350" stroke-width="1"/><rect x="294.1" y="125.7" width="2.76" height="2.8" fill="#ef5350"/><line x1="299.9" x2="299.9" y1="128.5" y2="138.8" stroke="#ef5350" stroke-width="1"/><rect x="298.6" y="128.5" width="2.76" height="4.6" fill="#ef5350"/><line x1="304.4" x2="304.4" y1="130.0" y2="138.5" stroke="#ef5350" stroke-width="1"/><rect x="303.0" y="133.2" width="2.76" height="4.4" fill="#ef5350"/><line x1="308.9" x2="308.9" y1="135.9" y2="145.8" stroke="#ef5350" stroke-width="1"/><rect x="307.5" y="137.6" width="2.76" height="1.4" fill="#ef5350"/><line x1="313.3" x2="313.3" y1="135.0" y2="140.0" stroke="#26a69a" stroke-width="1"/><rect x="311.9" y="136.6" width="2.76" height="2.3" fill="#26a69a"/><line x1="317.8" x2="317.8" y1="135.4" y2="138.3" stroke="#ef5350" stroke-width="1"/><rect x="316.4" y="136.6" width="2.76" height="1.0" fill="#ef5350"/><line x1="322.2" x2="322.2" y1="132.6" y2="137.0" stroke="#26a69a" stroke-width="1"/><rect x="320.8" y="135.3" width="2.76" height="1.7" fill="#26a69a"/><line x1="326.7" x2="326.7" y1="134.2" y2="138.9" stroke="#26a69a" stroke-width="1"/><rect x="325.3" y="134.8" width="2.76" height="1.0" fill="#26a69a"/><line x1="331.1" x2="331.1" y1="132.6" y2="136.2" stroke="#ef5350" stroke-width="1"/><rect x="329.8" y="134.8" width="2.76" height="1.0" fill="#ef5350"/><line x1="335.6" x2="335.6" y1="131.2" y2="135.5" stroke="#26a69a" stroke-width="1"/><rect x="334.2" y="133.4" width="2.76" height="1.7" fill="#26a69a"/><line x1="340.1" x2="340.1" y1="132.9" y2="134.9" stroke="#ef5350" stroke-width="1"/><rect x="338.7" y="133.4" width="2.76" height="1.3" fill="#ef5350"/><line x1="344.5" x2="344.5" y1="129.1" y2="134.7" stroke="#26a69a" stroke-width="1"/><rect x="343.1" y="130.0" width="2.76" height="4.7" fill="#26a69a"/><line x1="349.0" x2="349.0" y1="122.7" y2="130.9" stroke="#26a69a" stroke-width="1"/><rect x="347.6" y="123.7" width="2.76" height="6.3" fill="#26a69a"/><line x1="353.4" x2="353.4" y1="121.1" y2="129.0" stroke="#26a69a" stroke-width="1"/><rect x="352.0" y="121.1" width="2.76" height="2.5" fill="#26a69a"/><line x1="357.9" x2="357.9" y1="117.0" y2="124.5" stroke="#ef5350" stroke-width="1"/><rect x="356.5" y="121.1" width="2.76" height="1.0" fill="#ef5350"/><line x1="362.3" x2="362.3" y1="111.0" y2="123.1" stroke="#26a69a" stroke-width="1"/><rect x="361.0" y="115.6" width="2.76" height="5.6" fill="#26a69a"/><line x1="366.8" x2="366.8" y1="106.6" y2="115.7" stroke="#26a69a" stroke-width="1"/><rect x="365.4" y="113.4" width="2.76" height="2.2" fill="#26a69a"/><line x1="371.3" x2="371.3" y1="111.0" y2="115.9" stroke="#26a69a" stroke-width="1"/><rect x="369.9" y="111.7" width="2.76" height="1.7" fill="#26a69a"/><line x1="375.7" x2="375.7" y1="107.7" y2="121.0" stroke="#ef5350" stroke-width="1"/><rect x="374.3" y="111.7" width="2.76" height="8.0" fill="#ef5350"/><line x1="380.2" x2="380.2" y1="111.2" y2="120.5" stroke="#26a69a" stroke-width="1"/><rect x="378.8" y="114.5" width="2.76" height="5.2" fill="#26a69a"/><line x1="384.6" x2="384.6" y1="112.9" y2="120.8" stroke="#26a69a" stroke-width="1"/><rect x="383.2" y="112.9" width="2.76" height="1.6" fill="#26a69a"/><line x1="389.1" x2="389.1" y1="104.2" y2="114.4" stroke="#ef5350" stroke-width="1"/><rect x="387.7" y="112.9" width="2.76" height="1.4" fill="#ef5350"/><line x1="393.5" x2="393.5" y1="106.4" y2="117.7" stroke="#26a69a" stroke-width="1"/><rect x="392.2" y="109.3" width="2.76" height="5.0" fill="#26a69a"/><line x1="398.0" x2="398.0" y1="105.1" y2="111.9" stroke="#ef5350" stroke-width="1"/><rect x="396.6" y="109.3" width="2.76" height="2.3" fill="#ef5350"/><line x1="402.5" x2="402.5" y1="109.3" y2="111.9" stroke="#26a69a" stroke-width="1"/><rect x="401.1" y="110.6" width="2.76" height="1.0" fill="#26a69a"/><line x1="406.9" x2="406.9" y1="100.6" y2="110.6" stroke="#26a69a" stroke-width="1"/><rect x="405.5" y="106.4" width="2.76" height="4.1" fill="#26a69a"/><line x1="411.4" x2="411.4" y1="86.0" y2="107.8" stroke="#26a69a" stroke-width="1"/><rect x="410.0" y="88.1" width="2.76" height="18.4" fill="#26a69a"/><line x1="415.8" x2="415.8" y1="77.2" y2="90.1" stroke="#26a69a" stroke-width="1"/><rect x="414.4" y="87.0" width="2.76" height="1.1" fill="#26a69a"/><line x1="420.3" x2="420.3" y1="49.1" y2="87.0" stroke="#26a69a" stroke-width="1"/><rect x="418.9" y="59.2" width="2.76" height="27.8" fill="#26a69a"/><line x1="424.7" x2="424.7" y1="43.0" y2="61.0" stroke="#26a69a" stroke-width="1"/><rect x="423.4" y="55.8" width="2.76" height="3.5" fill="#26a69a"/><line x1="429.2" x2="429.2" y1="47.9" y2="71.0" stroke="#26a69a" stroke-width="1"/><rect x="427.8" y="50.9" width="2.76" height="4.9" fill="#26a69a"/><line x1="433.7" x2="433.7" y1="34.7" y2="58.7" stroke="#ef5350" stroke-width="1"/><rect x="432.3" y="50.9" width="2.76" height="1.0" fill="#ef5350"/><line x1="438.1" x2="438.1" y1="46.5" y2="61.0" stroke="#ef5350" stroke-width="1"/><rect x="436.7" y="51.8" width="2.76" height="4.4" fill="#ef5350"/><line x1="442.6" x2="442.6" y1="56.2" y2="78.7" stroke="#ef5350" stroke-width="1"/><rect x="441.2" y="56.2" width="2.76" height="20.3" fill="#ef5350"/><line x1="447.0" x2="447.0" y1="75.0" y2="104.9" stroke="#ef5350" stroke-width="1"/><rect x="445.6" y="76.5" width="2.76" height="25.7" fill="#ef5350"/><line x1="451.5" x2="451.5" y1="90.7" y2="107.2" stroke="#26a69a" stroke-width="1"/><rect x="450.1" y="92.1" width="2.76" height="10.1" fill="#26a69a"/><line x1="455.9" x2="455.9" y1="60.3" y2="92.1" stroke="#26a69a" stroke-width="1"/><rect x="454.6" y="70.2" width="2.76" height="21.9" fill="#26a69a"/><line x1="460.4" x2="460.4" y1="59.1" y2="74.4" stroke="#ef5350" stroke-width="1"/><rect x="459.0" y="70.2" width="2.76" height="1.0" fill="#ef5350"/><line x1="464.9" x2="464.9" y1="58.9" y2="77.2" stroke="#26a69a" stroke-width="1"/><rect x="463.5" y="69.9" width="2.76" height="1.3" fill="#26a69a"/><line x1="469.3" x2="469.3" y1="69.9" y2="90.0" stroke="#ef5350" stroke-width="1"/><rect x="467.9" y="69.9" width="2.76" height="11.3" fill="#ef5350"/><line x1="473.8" x2="473.8" y1="71.5" y2="81.9" stroke="#26a69a" stroke-width="1"/><rect x="472.4" y="75.2" width="2.76" height="5.9" fill="#26a69a"/><line x1="478.2" x2="478.2" y1="68.3" y2="83.6" stroke="#26a69a" stroke-width="1"/><rect x="476.8" y="70.3" width="2.76" height="4.9" fill="#26a69a"/><line x1="482.7" x2="482.7" y1="70.3" y2="87.6" stroke="#ef5350" stroke-width="1"/><rect x="481.3" y="70.3" width="2.76" height="14.8" fill="#ef5350"/><line x1="487.1" x2="487.1" y1="55.6" y2="87.9" stroke="#26a69a" stroke-width="1"/><rect x="485.8" y="60.1" width="2.76" height="25.1" fill="#26a69a"/><line x1="491.6" x2="491.6" y1="47.3" y2="106.3" stroke="#ef5350" stroke-width="1"/><rect x="490.2" y="60.1" width="2.76" height="36.1" fill="#ef5350"/><line x1="496.1" x2="496.1" y1="96.0" y2="116.7" stroke="#ef5350" stroke-width="1"/><rect x="494.7" y="96.2" width="2.76" height="17.5" fill="#ef5350"/><line x1="500.5" x2="500.5" y1="110.7" y2="126.5" stroke="#26a69a" stroke-width="1"/><rect x="499.1" y="111.7" width="2.76" height="2.0" fill="#26a69a"/><line x1="505.0" x2="505.0" y1="105.2" y2="116.1" stroke="#26a69a" stroke-width="1"/><rect x="503.6" y="105.9" width="2.76" height="5.8" fill="#26a69a"/><line x1="509.4" x2="509.4" y1="95.2" y2="109.8" stroke="#26a69a" stroke-width="1"/><rect x="508.0" y="95.2" width="2.76" height="10.7" fill="#26a69a"/><line x1="513.9" x2="513.9" y1="90.3" y2="100.4" stroke="#26a69a" stroke-width="1"/><rect x="512.5" y="93.0" width="2.76" height="2.2" fill="#26a69a"/><line x1="518.3" x2="518.3" y1="86.5" y2="96.1" stroke="#26a69a" stroke-width="1"/><rect x="517.0" y="90.0" width="2.76" height="3.0" fill="#26a69a"/><line x1="522.8" x2="522.8" y1="80.4" y2="94.4" stroke="#26a69a" stroke-width="1"/><rect x="521.4" y="82.1" width="2.76" height="7.9" fill="#26a69a"/><line x1="527.3" x2="527.3" y1="79.2" y2="86.9" stroke="#ef5350" stroke-width="1"/><rect x="525.9" y="82.1" width="2.76" height="1.0" fill="#ef5350"/><line x1="531.7" x2="531.7" y1="76.9" y2="92.4" stroke="#ef5350" stroke-width="1"/><rect x="530.3" y="82.8" width="2.76" height="8.4" fill="#ef5350"/><line x1="536.2" x2="536.2" y1="81.5" y2="91.2" stroke="#26a69a" stroke-width="1"/><rect x="534.8" y="85.0" width="2.76" height="6.2" fill="#26a69a"/><line x1="540.6" x2="540.6" y1="74.4" y2="98.1" stroke="#ef5350" stroke-width="1"/><rect x="539.2" y="85.0" width="2.76" height="12.1" fill="#ef5350"/><line x1="545.1" x2="545.1" y1="90.9" y2="105.0" stroke="#ef5350" stroke-width="1"/><rect x="543.7" y="97.1" width="2.76" height="4.4" fill="#ef5350"/><line x1="549.5" x2="549.5" y1="98.8" y2="111.1" stroke="#ef5350" stroke-width="1"/><rect x="548.2" y="101.5" width="2.76" height="2.2" fill="#ef5350"/><line x1="554.0" x2="554.0" y1="97.3" y2="103.6" stroke="#26a69a" stroke-width="1"/><rect x="552.6" y="98.4" width="2.76" height="5.3" fill="#26a69a"/><line x1="558.5" x2="558.5" y1="92.8" y2="102.9" stroke="#ef5350" stroke-width="1"/><rect x="557.1" y="98.4" width="2.76" height="4.5" fill="#ef5350"/><line x1="562.9" x2="562.9" y1="102.9" y2="120.6" stroke="#ef5350" stroke-width="1"/><rect x="561.5" y="102.9" width="2.76" height="9.1" fill="#ef5350"/><line x1="567.4" x2="567.4" y1="97.1" y2="113.6" stroke="#26a69a" stroke-width="1"/><rect x="566.0" y="100.1" width="2.76" height="11.9" fill="#26a69a"/><line x1="571.8" x2="571.8" y1="78.3" y2="100.1" stroke="#26a69a" stroke-width="1"/><rect x="570.4" y="79.2" width="2.76" height="20.9" fill="#26a69a"/><line x1="576.3" x2="576.3" y1="71.8" y2="91.8" stroke="#ef5350" stroke-width="1"/><rect x="574.9" y="79.2" width="2.76" height="1.9" fill="#ef5350"/><line x1="580.7" x2="580.7" y1="68.8" y2="82.2" stroke="#26a69a" stroke-width="1"/><rect x="579.4" y="73.9" width="2.76" height="7.2" fill="#26a69a"/><line x1="585.2" x2="585.2" y1="62.8" y2="75.8" stroke="#26a69a" stroke-width="1"/><rect x="583.8" y="68.1" width="2.76" height="5.8" fill="#26a69a"/><line x1="589.7" x2="589.7" y1="62.1" y2="74.1" stroke="#ef5350" stroke-width="1"/><rect x="588.3" y="68.1" width="2.76" height="1.9" fill="#ef5350"/><line x1="594.1" x2="594.1" y1="57.7" y2="80.3" stroke="#26a69a" stroke-width="1"/><rect x="592.7" y="65.0" width="2.76" height="5.0" fill="#26a69a"/><line x1="598.6" x2="598.6" y1="51.5" y2="81.7" stroke="#26a69a" stroke-width="1"/><rect x="597.2" y="51.8" width="2.76" height="13.2" fill="#26a69a"/><line x1="603.0" x2="603.0" y1="48.1" y2="92.5" stroke="#ef5350" stroke-width="1"/><rect x="601.6" y="51.8" width="2.76" height="40.2" fill="#ef5350"/><line x1="607.5" x2="607.5" y1="86.9" y2="99.5" stroke="#ef5350" stroke-width="1"/><rect x="606.1" y="92.0" width="2.76" height="6.1" fill="#ef5350"/><line x1="611.9" x2="611.9" y1="91.5" y2="102.7" stroke="#26a69a" stroke-width="1"/><rect x="610.6" y="92.4" width="2.76" height="5.7" fill="#26a69a"/><line x1="616.4" x2="616.4" y1="88.5" y2="102.7" stroke="#ef5350" stroke-width="1"/><rect x="615.0" y="92.4" width="2.76" height="10.3" fill="#ef5350"/><line x1="620.9" x2="620.9" y1="94.7" y2="106.4" stroke="#26a69a" stroke-width="1"/><rect x="619.5" y="97.1" width="2.76" height="5.6" fill="#26a69a"/><line x1="625.3" x2="625.3" y1="95.0" y2="99.5" stroke="#ef5350" stroke-width="1"/><rect x="623.9" y="97.1" width="2.76" height="1.0" fill="#ef5350"/><line x1="629.8" x2="629.8" y1="96.7" y2="102.7" stroke="#26a69a" stroke-width="1"/><rect x="628.4" y="97.3" width="2.76" height="1.0" fill="#26a69a"/><line x1="0" x2="640" y1="256.7" y2="256.7" stroke="rgba(57,255,136,0.302)" stroke-width="1" stroke-dasharray="4 4"/><line x1="0" x2="640" y1="273.4" y2="273.4" stroke="rgba(34,211,238,0.22)" stroke-width="1" stroke-dasharray="4 4"/><line x1="0" x2="640" y1="287.3" y2="287.3" stroke="rgba(34,211,238,0.122)" stroke-width="1" stroke-dasharray="4 4"/><line x1="0" x2="640" y1="298.5" y2="298.5" stroke="rgba(161,161,170,0.451)" stroke-width="1" stroke-dasharray="4 4"/><line x1="0" x2="640" y1="309.6" y2="309.6" stroke="rgba(251,113,133,0.122)" stroke-width="1" stroke-dasharray="4 4"/><line x1="0" x2="640" y1="323.5" y2="323.5" stroke="rgba(251,113,133,0.22)" stroke-width="1" stroke-dasharray="4 4"/><line x1="0" x2="640" y1="340.2" y2="340.2" stroke="rgba(255,77,109,0.302)" stroke-width="1" stroke-dasharray="4 4"/><rect x="62.3" y="281.6" width="2.76" height="66.4" fill="rgba(34,211,238,0.18)"/><rect x="66.8" y="282.9" width="2.76" height="65.1" fill="rgba(34,211,238,0.18)"/><rect x="71.2" y="283.2" width="2.76" height="64.8" fill="rgba(34,211,238,0.18)"/><rect x="75.7" y="270.3" width="2.76" height="77.7" fill="rgba(34,211,238,0.18)"/><rect x="80.2" y="242.8" width="2.76" height="105.2" fill="rgba(251,113,133,0.18)"/><rect x="84.6" y="293.2" width="2.76" height="54.8" fill="rgba(251,113,133,0.18)"/><rect x="169.3" y="288.6" width="2.76" height="59.4" fill="rgba(34,211,238,0.18)"/><rect x="173.8" y="280.2" width="2.76" height="67.8" fill="rgba(34,211,238,0.18)"/><rect x="178.2" y="268.9" width="2.76" height="79.1" fill="rgba(251,113,133,0.18)"/><rect x="182.7" y="274.9" width="2.76" height="73.1" fill="rgba(251,113,133,0.18)"/><rect x="187.1" y="283.7" width="2.76" height="64.3" fill="rgba(34,211,238,0.18)"/><rect x="191.6" y="290.9" width="2.76" height="57.1" fill="rgba(34,211,238,0.18)"/><rect x="490.2" y="283.3" width="2.76" height="64.7" fill="rgba(34,211,238,0.18)"/><rect x="494.7" y="280.0" width="2.76" height="68.0" fill="rgba(34,211,238,0.18)"/><rect x="499.1" y="284.2" width="2.76" height="63.8" fill="rgba(34,211,238,0.18)"/><rect x="503.6" y="290.5" width="2.76" height="57.5" fill="rgba(34,211,238,0.18)"/><rect x="508.0" y="291.7" width="2.76" height="56.3" fill="rgba(34,211,238,0.18)"/><rect x="512.5" y="291.1" width="2.76" height="56.9" fill="rgba(34,211,238,0.18)"/><rect x="597.2" y="282.1" width="2.76" height="65.9" fill="rgba(34,211,238,0.18)"/><rect x="601.6" y="293.6" width="2.76" height="54.4" fill="rgba(34,211,238,0.18)"/><rect x="606.1" y="285.1" width="2.76" height="62.9" fill="rgba(34,211,238,0.18)"/><rect x="610.6" y="269.4" width="2.76" height="78.6" fill="rgba(34,211,238,0.18)"/><rect x="615.0" y="290.3" width="2.76" height="57.7" fill="rgba(34,211,238,0.18)"/><rect x="619.5" y="262.0" width="2.76" height="86.0" fill="rgba(34,211,238,0.18)"/><path d="M10.2,298.5L14.7,298.5L19.1,298.5L23.6,298.5L28.1,298.5L32.5,298.5L37.0,298.5L41.4,298.5L45.9,298.5L50.3,298.5L54.8,298.5L59.3,298.5L63.7,298.5L68.2,298.5L72.6,298.5L77.1,298.5L81.5,298.5L86.0,298.5L90.5,298.5L94.9,298.5L99.4,298.5L103.8,298.5L108.3,298.5L112.7,298.5L117.2,298.5L121.7,298.5L126.1,298.5L130.6,298.5L135.0,298.5L139.5,298.5L143.9,298.5L148.4,298.5L152.9,298.5L157.3,298.5L161.8,298.5L166.2,298.5L170.7,298.5L175.1,298.5L179.6,298.5L184.1,298.5L188.5,298.5L193.0,298.5L197.4,298.5L201.9,298.5L206.3,298.5L210.8,298.5L215.3,298.5L219.7,298.5L224.2,298.5L228.6,298.5L233.1,298.5L237.5,298.5L242.0,298.5L246.5,298.5L250.9,298.5L255.4,298.5L259.8,298.5L264.3,298.5L268.7,298.5L273.2,298.5L277.7,298.5L282.1,298.5L286.6,298.5L291.0,298.5L295.5,298.5L299.9,298.5L304.4,298.5L308.9,298.5L313.3,298.5L317.8,298.5L322.2,298.5L326.7,298.5L331.1,298.5L335.6,298.5L340.1,298.5L344.5,298.5L349.0,298.5L353.4,298.5L357.9,298.5L362.3,298.5L366.8,298.5L371.3,298.5L375.7,298.5L380.2,298.5L384.6,298.5L389.1,298.5L393.5,298.5L398.0,298.5L402.5,298.5L406.9,298.5L411.4,298.5L415.8,298.5L420.3,298.5L424.7,298.5L429.2,298.5L433.7,298.5L438.1,298.5L442.6,298.5L447.0,298.5L451.5,298.5L455.9,298.5L460.4,298.5L464.9,298.5L469.3,298.5L473.8,298.5L478.2,298.5L482.7,298.5L487.1,298.5L491.6,298.5L496.1,298.5L500.5,298.5L505.0,298.5L509.4,298.5L513.9,298.5L518.3,298.5L522.8,298.5L527.3,298.5L531.7,298.5L536.2,298.5L540.6,298.5L545.1,298.5L549.5,298.5L554.0,298.5L558.5,298.5L562.9,298.5L567.4,298.5L571.8,298.5L576.3,298.5L580.7,298.5L585.2,298.5L589.7,298.5L594.1,298.5L598.6,298.5L603.0,298.5L607.5,298.5L611.9,298.5L616.4,298.5L620.9,298.5L625.3,298.5L629.8,298.5" fill="none" stroke="#9e9e9e" stroke-width="1" stroke-linejoin="round"/><path d="M10.2,312.1L14.7,307.2L19.1,294.5L23.6,278.9L28.1,275.5L32.5,288.4L37.0,296.1L41.4,299.2L45.9,300.0L50.3,299.5L54.8,291.4L59.3,284.8L63.7,280.1L68.2,278.2L72.6,277.5L77.1,266.7L81.5,271.0L86.0,273.7L90.5,270.6L94.9,271.3L99.4,275.5L103.8,273.7L108.3,272.3L112.7,269.6L117.2,266.4L121.7,264.4L126.1,260.0L130.6,261.7L135.0,262.3L139.5,262.9L143.9,263.6L148.4,270.1L152.9,267.1L157.3,264.4L161.8,262.3L166.2,264.6L170.7,294.9L175.1,298.5L179.6,303.8L184.1,311.1L188.5,319.3L193.0,320.4L197.4,317.8L201.9,317.2L206.3,315.5L210.8,311.4L215.3,309.4L219.7,310.1L224.2,312.2L228.6,311.2L233.1,311.6L237.5,312.3L242.0,314.1L246.5,313.7L250.9,314.0L255.4,312.5L259.8,312.4L264.3,309.1L268.7,299.8L273.2,296.4L277.7,293.0L282.1,289.6L286.6,285.7L291.0,280.6L295.5,279.7L299.9,283.0L304.4,289.5L308.9,295.6L313.3,303.0L317.8,305.8L322.2,303.0L326.7,298.3L331.1,295.0L335.6,290.8L340.1,289.6L344.5,281.9L349.0,273.1L353.4,268.6L357.9,267.3L362.3,264.7L366.8,264.1L371.3,264.3L375.7,270.1L380.2,268.6L384.6,269.6L389.1,272.0L393.5,270.6L398.0,267.6L402.5,267.9L406.9,267.1L411.4,261.7L415.8,260.7L420.3,258.1L424.7,257.6L429.2,256.9L433.7,258.9L438.1,259.8L442.6,271.3L447.0,281.2L451.5,285.1L455.9,282.3L460.4,281.6L464.9,276.0L469.3,271.3L473.8,269.6L478.2,274.1L482.7,282.7L487.1,274.8L491.6,301.3L496.1,310.3L500.5,315.2L505.0,312.5L509.4,303.9L513.9,299.2L518.3,300.2L522.8,291.5L527.3,284.9L531.7,289.8L536.2,286.7L540.6,295.1L545.1,305.9L549.5,311.1L554.0,309.3L558.5,312.5L562.9,314.4L567.4,309.2L571.8,296.0L576.3,287.6L580.7,276.9L585.2,270.9L589.7,268.2L594.1,269.9L598.6,268.0L603.0,295.3L607.5,301.2L611.9,300.8L616.4,311.9L620.9,312.1L625.3,308.6L629.8,306.6" fill="none" stroke="#9e9e9e" stroke-width="3" stroke-linejoin="round"/><path d="M10.2,277.3L14.7,281.3L19.1,284.8L23.6,273.6L28.1,271.7L32.5,279.5L37.0,285.6L41.4,287.4L45.9,286.0L50.3,287.4L54.8,283.3L59.3,277.8L63.7,277.5L68.2,276.7L72.6,276.2L77.1,266.4L81.5,264.2L86.0,273.0L90.5,265.0L94.9,267.3L99.4,272.0L103.8,271.8L108.3,271.6L112.7,269.7L117.2,267.7L121.7,266.4L126.1,257.8L130.6,257.8L135.0,260.4L139.5,258.0L143.9,258.5L148.4,264.3L152.9,263.4L157.3,263.3L161.8,259.0L166.2,260.1L170.7,287.9L175.1,289.4L179.6,282.4L184.1,280.4L188.5,279.6L193.0,278.6L197.4,270.7L201.9,271.5L206.3,275.6L210.8,280.9L215.3,283.4L219.7,283.8L224.2,282.9L228.6,284.1L233.1,283.9L237.5,283.7L242.0,282.5L246.5,283.0L250.9,282.8L255.4,284.0L259.8,284.2L264.3,286.7L268.7,293.5L273.2,292.9L277.7,290.4L282.1,287.8L286.6,284.9L291.0,280.9L295.5,280.2L299.9,282.6L304.4,287.4L308.9,291.8L313.3,290.5L317.8,288.5L322.2,290.5L326.7,293.8L331.1,291.3L335.6,288.1L340.1,287.2L344.5,281.4L349.0,274.6L353.4,271.1L357.9,270.1L362.3,267.9L366.8,267.3L371.3,267.5L375.7,271.6L380.2,270.3L384.6,271.0L389.1,272.6L393.5,271.3L398.0,269.0L402.5,269.4L406.9,268.6L411.4,263.9L415.8,262.8L420.3,258.7L424.7,257.5L429.2,255.6L433.7,256.0L438.1,256.6L442.6,264.6L447.0,272.0L451.5,275.0L455.9,273.5L460.4,272.9L464.9,268.7L469.3,265.2L473.8,263.7L478.2,267.0L482.7,273.4L487.1,268.0L491.6,288.5L496.1,284.4L500.5,281.7L505.0,282.5L509.4,287.1L513.9,289.6L518.3,284.1L522.8,280.0L527.3,274.7L531.7,278.3L536.2,275.8L540.6,282.3L545.1,279.1L549.5,275.2L554.0,277.0L558.5,274.9L562.9,273.3L567.4,277.2L571.8,283.1L576.3,276.6L580.7,268.7L585.2,264.3L589.7,262.4L594.1,263.3L598.6,271.1L603.0,287.5L607.5,288.8L611.9,284.5L616.4,284.0L620.9,278.1L625.3,277.0L629.8,279.0" fill="none" stroke="#9e9e9e" stroke-width="1" stroke-linejoin="round"/></svg>