<!-- 6ea82e26dc542e3b end=none ahead=0 --><svg xmlns="http://www.w3.org/2000/svg" viewBox="0 0 640 360" width="640" height="360" preserveAspectRatio="none"><rect width="640" height="360" fill="#0f0f10"/><line x1="0" x2="640" y1="60.0" y2="60.0" stroke="#1d1d20" stroke-width="1"/><line x1="0" x2="640" y1="120.0" y2="120.0" stroke="#1d1d20" stroke-width="1"/><line x1="0" x2="640" y1="180.0" y2="180.0" stroke="#1d1d20" stroke-width="1"/><line x1="0" x2="640" y1="240.0" y2="240.0" stroke="#1d1d20" stroke-width="1"/><line x1="0" x2="640" y1="300.0" y2="300.0" stroke="#1d1d20" stroke-width="1"/><line x1="10.2" x2="10.2" y1="279.8" y2="298.1" stroke="#ef5350" stroke-width="1"/><rect x="8.8" y="290.9" width="2.76" height="1.0" fill="#ef5350"/><line x1="14.7" x2="14.7" y1="272.0" y2="297.0" stroke="#26a69a" stroke-width="1"/><rect x="13.3" y="274.0" width="2.76" height="17.9" fill="#26a69a"/><line x1="19.1" x2="19.1" y1="242.6" y2="276.3" stroke="#26a69a" stroke-width="1"/><rect x="17.8" y="250.3" width="2.76" height="23.6" fill="#26a69a"/><line x1="23.6" x2="23.6" y1="232.0" y2="255.7" stroke="#26a69a" stroke-width="1"/><rect x="22.2" y="236.2" width="2.76" height="14.2" fill="#26a69a"/><line x1="28.1" x2="28.1" y1="227.4" y2="247.4" stroke="#ef5350" stroke-width="1"/><rect x="26.7" y="236.2" width="2.76" height="9.1" fill="#ef5350"/><line x1="32.5" x2="32.5" y1="240.6" y2="301.5" stroke="#ef5350" stroke-width="1"/><rect x="31.1" y="245.2" width="2.76" height="49.9" fill="#ef5350"/><line x1="37.0" x2="37.0" y1="285.9" y2="314.1" stroke="#26a69a" stroke-width="1"/><rect x="35.6" y="286.7" width="2.76" height="8.4" fill="#26a69a"/><line x1="41.4" x2="41.4" y1="263.7" y2="287.5" stroke="#26a69a" stroke-width="1"/><rect x="40.0" y="272.4" width="2.76" height="14.3" fill="#26a69a"/><line x1="45.9" x2="45.9" y1="251.8" y2="296.9" stroke="#26a69a" stroke-width="1"/><rect x="44.5" y="258.7" width="2.76" height="13.7" fill="#26a69a"/><line x1="50.3" x2="50.3" y1="251.9" y2="270.3" stroke="#ef5350" stroke-width="1"/><rect x="49.0" y="258.7" width="2.76" height="2.9" fill="#ef5350"/><line x1="54.8" x2="54.8" y1="250.5" y2="278.2" stroke="#ef5350" stroke-width="1"/><rect x="53.4" y="261.5" width="2.76" height="11.0" fill="#ef5350"/><line x1="59.3" x2="59.3" y1="252.9" y2="293.0" stroke="#26a69a" stroke-width="1"/><rect x="57.9" y="259.5" width="2.76" height="13.0" fill="#26a69a"/><line x1="63.7" x2="63.7" y1="231.5" y2="284.0" stroke="#26a69a" stroke-width="1"/><rect x="62.3" y="250.9" width="2.76" height="8.6" fill="#26a69a"/><line x1="68.2" x2="68.2" y1="232.5" y2="267.6" stroke="#26a69a" stroke-width="1"/><rect x="66.8" y="243.6" width="2.76" height="7.3" fill="#26a69a"/><line x1="72.6" x2="72.6" y1="212.6" y2="252.0" stroke="#26a69a" stroke-width="1"/><rect x="71.2" y="241.7" width="2.76" height="1.9" fill="#26a69a"/><line x1="77.1" x2="77.1" y1="180.1" y2="242.0" stroke="#26a69a" stroke-width="1"/><rect x="75.7" y="191.8" width="2.76" height="49.9" fill="#26a69a"/><line x1="81.5" x2="81.5" y1="167.0" y2="222.6" stroke="#ef5350" stroke-width="1"/><rect x="80.2" y="191.8" width="2.76" height="8.2" fill="#ef5350"/><line x1="86.0" x2="86.0" y1="193.5" y2="215.4" stroke="#ef5350" stroke-width="1"/><rect x="84.6" y="200.0" width="2.76" height="10.4" fill="#ef5350"/><line x1="90.5" x2="90.5" y1="194.9" y2="216.1" stroke="#ef5350" stroke-width="1"/><rect x="89.1" y="210.4" width="2.76" height="1.0" fill="#ef5350"/><line x1="94.9" x2="94.9" y1="207.1" y2="220.9" stroke="#ef5350" stroke-width="1"/><rect x="93.5" y="210.8" width="2.76" height="5.9" fill="#ef5350"/><line x1="99.4" x2="99.4" y1="199.4" y2="216.9" stroke="#26a69a" stroke-width="1"/><rect x="98.0" y="203.2" width="2.76" height="13.5" fill="#26a69a"/><line x1="103.8" x2="103.8" y1="192.4" y2="210.7" stroke="#26a69a" stroke-width="1"/><rect x="102.4" y="194.4" width="2.76" height="8.8" fill="#26a69a"/><line x1="108.3" x2="108.3" y1="189.6" y2="206.4" stroke="#ef5350" stroke-width="1"/><rect x="106.9" y="194.4" width="2.76" height="7.2" fill="#ef5350"/><line x1="112.7" x2="112.7" y1="187.3" y2="218.6" stroke="#26a69a" stroke-width="1"/><rect x="111.4" y="191.9" width="2.76" height="9.7" fill="#26a69a"/><line x1="117.2" x2="117.2" y1="172.4" y2="195.8" stroke="#26a69a" stroke-width="1"/><rect x="115.8" y="172.4" width="2.76" height="19.6" fill="#26a69a"/><line x1="121.7" x2="121.7" y1="147.4" y2="173.1" stroke="#26a69a" stroke-width="1"/><rect x="120.3" y="150.0" width="2.76" height="22.4" fill="#26a69a"/><line x1="126.1" x2="126.1" y1="53.4" y2="153.7" stroke="#26a69a" stroke-width="1"/><rect x="124.7" y="71.5" width="2.76" height="78.5" fill="#26a69a"/><line x1="130.6" x2="130.6" y1="69.3" y2="121.8" stroke="#ef5350" stroke-width="1"/><rect x="129.2" y="71.5" width="2.76" height="44.7" fill="#ef5350"/><line x1="135.0" x2="135.0" y1="110.4" y2="123.1" stroke="#ef5350" stroke-width="1"/><rect x="133.6" y="116.2" width="2.76" height="1.0" fill="#ef5350"/><line x1="139.5" x2="139.5" y1="58.7" y2="131.2" stroke="#26a69a" stroke-width="1"/><rect x="138.1" y="98.5" width="2.76" height="18.2" fill="#26a69a"/><line x1="143.9" x2="143.9" y1="73.3" y2="114.8" stroke="#ef5350" stroke-width="1"/><rect x="142.6" y="98.5" width="2.76" height="1.1" fill="#ef5350"/><line x1="148.4" x2="148.4" y1="84.5" y2="107.0" stroke="#26a69a" stroke-width="1"/><rect x="147.0" y="89.9" width="2.76" height="9.6" fill="#26a69a"/><line x1="152.9" x2="152.9" y1="80.1" y2="102.4" stroke="#ef5350" stroke-width="1"/><rect x="151.5" y="89.9" width="2.76" height="4.4" fill="#ef5350"/><line x1="157.3" x2="157.3" y1="76.2" y2="94.3" stroke="#26a69a" stroke-width="1"/><rect x="155.9" y="84.3" width="2.76" height="10.0" fill="#26a69a"/><line x1="161.8" x2="161.8" y1="31.8" y2="93.7" stroke="#26a69a" stroke-width="1"/><rect x="160.4" y="57.7" width="2.76" height="26.6" fill="#26a69a"/><line x1="166.2" x2="166.2" y1="32.1" y2="79.6" stroke="#ef5350" stroke-width="1"/><rect x="164.8" y="57.7" width="2.76" height="16.5" fill="#ef5350"/><line x1="170.7" x2="170.7" y1="55.8" y2="156.2" stroke="#ef5350" stroke-width="1"/><rect x="169.3" y="74.2" width="2.76" height="64.0" fill="#ef5350"/><line x1="175.1" x2="175.1" y1="132.2" y2="173.1" stroke="#ef5350" stroke-width="1"/><rect x="173.8" y="138.2" width="2.76" height="22.5" fill="#ef5350"/><line x1="179.6" x2="179.6" y1="148.6" y2="183.4" stroke="#ef5350" stroke-width="1"/><rect x="178.2" y="160.6" width="2.76" height="12.7" fill="#ef5350"/><line x1="184.1" x2="184.1" y1="166.1" y2="218.0" stroke="#ef5350" stroke-width="1"/><rect x="182.7" y="173.3" width="2.76" height="25.3" fill="#ef5350"/><line x1="188.5" x2="188.5" y1="191.6" y2="262.7" stroke="#ef5350" stroke-width="1"/><rect x="187.1" y="198.7" width="2.76" height="37.3" fill="#ef5350"/><line x1="193.0" x2="193.0" y1="231.0" y2="255.5" stroke="#26a69a" stroke-width="1"/><rect x="191.6" y="232.3" width="2.76" height="3.7" fill="#26a69a"/><line x1="197.4" x2="197.4" y1="217.0" y2="238.8" stroke="#26a69a" stroke-width="1"/><rect x="196.0" y="222.5" width="2.76" height="9.8" fill="#26a69a"/><line x1="201.9" x2="201.9" y1="215.0" y2="224.8" stroke="#26a69a" stroke-width="1"/><rect x="200.5" y="216.8" width="2.76" height="5.6" fill="#26a69a"/><line x1="206.3" x2="206.3" y1="214.7" y2="222.5" stroke="#26a69a" stroke-width="1"/><rect x="205.0" y="215.4" width="2.76" height="1.4" fill="#26a69a"/><line x1="210.8" x2="210.8" y1="214.4" y2="220.9" stroke="#ef5350" stroke-width="1"/><rect x="209.4" y="215.4" width="2.76" height="3.1" fill="#ef5350"/><line x1="215.3" x2="215.3" y1="206.6" y2="222.1" stroke="#26a69a" stroke-width="1"/><rect x="213.9" y="209.0" width="2.76" height="9.4" fill="#26a69a"/><line x1="219.7" x2="219.7" y1="204.0" y2="212.1" stroke="#ef5350" stroke-width="1"/><rect x="218.3" y="209.0" width="2.76" height="1.0" fill="#ef5350"/><line x1="224.2" x2="224.2" y1="206.4" y2="212.1" stroke="#ef5350" stroke-width="1"/><rect x="222.8" y="209.6" width="2.76" height="2.4" fill="#ef5350"/><line x1="228.6" x2="228.6" y1="206.1" y2="217.1" stroke="#26a69a" stroke-width="1"/><rect x="227.2" y="206.1" width="2.76" height="6.0" fill="#26a69a"/><line x1="233.1" x2="233.1" y1="203.1" y2="217.1" stroke="#ef5350" stroke-width="1"/><rect x="231.7" y="206.1" width="2.76" height="7.1" fill="#ef5350"/><line x1="237.5" x2="237.5" y1="208.4" y2="215.0" stroke="#26a69a" stroke-width="1"/><rect x="236.2" y="209.2" width="2.76" height="4.1" fill="#26a69a"/><line x1="242.0" x2="242.0" y1="206.8" y2="215.6" stroke="#ef5350" stroke-width="1"/><rect x="240.6" y="209.2" width="2.76" height="5.6" fill="#ef5350"/><line x1="246.5" x2="246.5" y1="208.1" y2="214.7" stroke="#26a69a" stroke-width="1"/><rect x="245.1" y="214.0" width="2.76" height="1.0" fill="#26a69a"/><line x1="250.9" x2="250.9" y1="208.7" y2="215.1" stroke="#26a69a" stroke-width="1"/><rect x="249.5" y="211.0" width="2.76" height="3.0" fill="#26a69a"/><line x1="255.4" x2="255.4" y1="207.5" y2="213.0" stroke="#ef5350" stroke-width="1"/><rect x="254.0" y="211.0" width="2.76" height="1.6" fill="#ef5350"/><line x1="259.8" x2="259.8" y1="209.3" y2="213.7" stroke="#26a69a" stroke-width="1"/><rect x="258.4" y="210.0" width="2.76" height="2.6" fill="#26a69a"/><line x1="264.3" x2="264.3" y1="205.1" y2="210.3" stroke="#26a69a" stroke-width="1"/><rect x="262.9" y="207.7" width="2.76" height="2.2" fill="#26a69a"/><line x1="268.7" x2="268.7" y1="190.2" y2="207.7" stroke="#26a69a" stroke-width="1"/><rect x="267.4" y="192.7" width="2.76" height="15.0" fill="#26a69a"/><line x1="273.2" x2="273.2" y1="187.4" y2="199.7" stroke="#ef5350" stroke-width="1"/><rect x="271.8" y="192.7" width="2.76" height="1.0" fill="#ef5350"/><line x1="277.7" x2="277.7" y1="193.7" y2="201.2" stroke="#ef5350" stroke-width="1"/><rect x="276.3" y="193.7" width="2.76" height="1.8" fill="#ef5350"/><line x1="282.1" x2="282.1" y1="193.9" y2="200.3" stroke="#26a69a" stroke-width="1"/><rect x="280.7" y="193.9" width="2.76" height="1.7" fill="#26a69a"/><line x1="286.6" x2="286.6" y1="193.4" y2="199.5" stroke="#ef5350" stroke-width="1"/><rect x="285.2" y="193.9" width="2.76" height="1.0" fill="#ef5350"/><line x1="291.0" x2="291.0" y1="183.9" y2="195.9" stroke="#26a69a" stroke-width="1"/><rect x="289.6" y="183.9" width="2.76" height="10.3" fill="#26a69a"/><line x1="295.5" x2="295.5" y1="183.9" y2="190.0" stroke="#ef5350" stroke-width="1"/><rect x="294.1" y="183.9" width="2.76" height="4.2" fill="#ef5350"/><line x1="299.9" x2="299.9" y1="188.1" y2="203.7" stroke="#ef5350" stroke-width="1"/><rect x="298.6" y="188.1" width="2.76" height="7.0" fill="#ef5350"/><line x1="304.4" x2="304.4" y1="190.4" y2="203.2" stroke="#ef5350" stroke-width="1"/><rect x="303.0" y="195.1" width="2.76" height="6.6" fill="#ef5350"/><line x1="308.9" x2="308.9" y1="199.2" y2="214.3" stroke="#ef5350" stroke-width="1"/><rect x="307.5" y="201.7" width="2.76" height="2.1" fill="#ef5350"/><line x1="313.3" x2="313.3" y1="197.9" y2="205.4" stroke="#26a69a" stroke-width="1"/><rect x="311.9" y="200.3" width="2.76" height="3.5" fill="#26a69a"/><line x1="317.8" x2="317.8" y1="198.5" y2="202.8" stroke="#ef5350" stroke-width="1"/><rect x="316.4" y="200.3" width="2.76" height="1.0" fill="#ef5350"/><line x1="322.2" x2="322.2" y1="194.2" y2="200.9" stroke="#26a69a" stroke-width="1"/><rect x="320.8" y="198.3" width="2.76" height="2.6" fill="#26a69a"/><line x1="326.7" x2="326.7" y1="196.7" y2="203.8" stroke="#26a69a" stroke-width="1"/><rect x="325.3" y="197.6" width="2.76" height="1.0" fill="#26a69a"/><line x1="331.1" x2="331.1" y1="194.2" y2="199.8" stroke="#ef5350" stroke-width="1"/><rect x="329.8" y="197.6" width="2.76" height="1.0" fill="#ef5350"/><line x1="335.6" x2="335.6" y1="192.1" y2="198.6" stroke="#26a69a" stroke-width="1"/><rect x="334.2" y="195.5" width="2.76" height="2.5" fill="#26a69a"/><line x1="340.1" x2="340.1" y1="194.8" y2="197.7" stroke="#ef5350" stroke-width="1"/><rect x="338.7" y="195.5" width="2.76" height="1.9" fill="#ef5350"/><line x1="344.5" x2="344.5" y1="189.0" y2="197.4" stroke="#26a69a" stroke-width="1"/><rect x="343.1" y="190.3" width="2.76" height="7.1" fill="#26a69a"/><line x1="349.0" x2="349.0" y1="179.2" y2="191.7" stroke="#26a69a" stroke-width="1"/><rect x="347.6" y="180.7" width="2.76" height="9.5" fill="#26a69a"/><line x1="353.4" x2="353.4" y1="176.9" y2="188.8" stroke="#26a69a" stroke-width="1"/><rect x="352.0" y="176.9" width="2.76" height="3.8" fill="#26a69a"/><line x1="357.9" x2="357.9" y1="170.7" y2="182.0" stroke="#ef5350" stroke-width="1"/><rect x="356.5" y="176.9" width="2.76" height="1.0" fill="#ef5350"/><line x1="362.3" x2="362.3" y1="161.6" y2="179.9" stroke="#26a69a" stroke-width="1"/><rect x="361.0" y="168.5" width="2.76" height="8.5" fill="#26a69a"/><line x1="366.8" x2="366.8" y1="154.9" y2="168.7" stroke="#26a69a" stroke-width="1"/><rect x="365.4" y="165.2" width="2.76" height="3.3" fill="#26a69a"/><line x1="371.3" x2="371.3" y1="161.5" y2="169.0" stroke="#26a69a" stroke-width="1"/><rect x="369.9" y="162.6" width="2.76" height="2.6" fill="#26a69a"/><line x1="375.7" x2="375.7" y1="156.6" y2="176.7" stroke="#ef5350" stroke-width="1"/><rect x="374.3" y="162.6" width="2.76" height="12.1" fill="#ef5350"/><line x1="380.2" x2="380.2" y1="161.9" y2="176.0" stroke="#26a69a" stroke-width="1"/><rect x="378.8" y="166.8" width="2.76" height="7.8" fill="#26a69a"/><line x1="384.6" x2="384.6" y1="164.4" y2="176.5" stroke="#26a69a" stroke-width="1"/><rect x="383.2" y="164.4" width="2.76" height="2.4" fill="#26a69a"/><line x1="389.1" x2="389.1" y1="151.3" y2="166.8" stroke="#ef5350" stroke-width="1"/><rect x="387.7" y="164.4" width="2.76" height="2.2" fill="#ef5350"/><line x1="393.5" x2="393.5" y1="154.6" y2="171.7" stroke="#26a69a" stroke-width="1"/><rect x="392.2" y="159.0" width="2.76" height="7.6" fill="#26a69a"/><line x1="398.0" x2="398.0" y1="152.6" y2="163.0" stroke="#ef5350" stroke-width="1"/><rect x="396.6" y="159.0" width="2.76" height="3.5" fill="#ef5350"/><line x1="402.5" x2="402.5" y1="159.0" y2="163.0" stroke="#26a69a" stroke-width="1"/><rect x="401.1" y="160.9" width="2.76" height="1.5" fill="#26a69a"/><line x1="406.9" x2="406.9" y1="145.8" y2="160.9" stroke="#26a69a" stroke-width="1"/><rect x="405.5" y="154.6" width="2.76" height="6.3" fill="#26a69a"/><line x1="411.4" x2="411.4" y1="123.8" y2="156.8" stroke="#26a69a" stroke-width="1"/><rect x="410.0" y="126.9" width="2.76" height="27.8" fill="#26a69a"/><line x1="415.8" x2="415.8" y1="110.4" y2="129.9" stroke="#26a69a" stroke-width="1"/><rect x="414.4" y="125.3" width="2.76" height="1.6" fill="#26a69a"/><line x1="420.3" x2="420.3" y1="68.0" y2="125.3" stroke="#26a69a" stroke-width="1"/><rect x="418.9" y="83.3" width="2.76" height="42.0" fill="#26a69a"/><line x1="424.7" x2="424.7" y1="58.7" y2="85.9" stroke="#26a69a" stroke-width="1"/><rect x="423.4" y="78.0" width="2.76" height="5.2" fill="#26a69a"/><line x1="429.2" x2="429.2" y1="66.1" y2="101.1" stroke="#26a69a" stroke-width="1"/><rect x="427.8" y="70.6" width="2.76" height="7.4" fill="#26a69a"/><line x1="433.7" x2="433.7" y1="46.2" y2="82.4" stroke="#ef5350" stroke-width="1"/><rect x="432.3" y="70.6" width="2.76" height="1.4" fill="#ef5350"/><line x1="438.1" x2="438.1" y1="63.9" y2="85.9" stroke="#ef5350" stroke-width="1"/><rect x="436.7" y="72.0" width="2.76" height="6.7" fill="#ef5350"/><line x1="442.6" x2="442.6" y1="78.7" y2="112.7" stroke="#ef5350" stroke-width="1"/><rect x="441.2" y="78.7" width="2.76" height="30.7" fill="#ef5350"/><line x1="447.0" x2="447.0" y1="107.1" y2="152.4" stroke="#ef5350" stroke-width="1"/><rect x="445.6" y="109.3" width="2.76" height="38.9" fill="#ef5350"/><line x1="451.5" x2="451.5" y1="130.8" y2="155.8" stroke="#26a69a" stroke-width="1"/><rect x="450.1" y="133.0" width="2.76" height="15.3" fill="#26a69a"/><line x1="455.9" x2="455.9" y1="84.9" y2="133.0" stroke="#26a69a" stroke-width="1"/><rect x="454.6" y="99.9" width="2.76" height="33.1" fill="#26a69a"/><line x1="460.4" x2="460.4" y1="83.1" y2="106.3" stroke="#ef5350" stroke-width="1"/><rect x="459.0" y="99.9" width="2.76" height="1.5" fill="#ef5350"/><line x1="464.9" x2="464.9" y1="82.8" y2="110.5" stroke="#26a69a" stroke-width="1"/><rect x="463.5" y="99.3" width="2.76" height="2.0" fill="#26a69a"/><line x1="469.3" x2="469.3" y1="99.3" y2="129.8" stroke="#ef5350" stroke-width="1"/><rect x="467.9" y="99.3" width="2.76" height="17.0" fill="#ef5350"/><line x1="473.8" x2="473.8" y1="101.8" y2="117.5" stroke="#26a69a" stroke-width="1"/><rect x="472.4" y="107.4" width="2.76" height="8.9" fill="#26a69a"/><line x1="478.2" x2="478.2" y1="96.9" y2="120.2" stroke="#26a69a" stroke-width="1"/><rect x="476.8" y="100.1" width="2.76" height="7.4" fill="#26a69a"/><line x1="482.7" x2="482.7" y1="100.1" y2="126.2" stroke="#ef5350" stroke-width="1"/><rect x="481.3" y="100.1" width="2.76" height="22.4" fill="#ef5350"/><line x1="487.1" x2="487.1" y1="77.8" y2="126.7" stroke="#26a69a" stroke-width="1"/><rect x="485.8" y="84.6" width="2.76" height="37.9" fill="#26a69a"/><line x1="491.6" x2="491.6" y1="65.2" y2="154.5" stroke="#ef5350" stroke-width="1"/><rect x="490.2" y="84.6" width="2.76" height="54.7" fill="#ef5350"/><line x1="496.1" x2="496.1" y1="138.9" y2="170.2" stroke="#ef5350" stroke-width="1"/><rect x="494.7" y="139.2" width="2.76" height="26.5" fill="#ef5350"/><line x1="500.5" x2="500.5" y1="161.2" y2="185.0" stroke="#26a69a" stroke-width="1"/><rect x="499.1" y="162.6" width="2.76" height="3.1" fill="#26a69a"/><line x1="505.0" x2="505.0" y1="152.9" y2="169.3" stroke="#26a69a" stroke-width="1"/><rect x="503.6" y="153.8" width="2.76" height="8.8" fill="#26a69a"/><line x1="509.4" x2="509.4" y1="137.6" y2="159.8" stroke="#26a69a" stroke-width="1"/><rect x="508.0" y="137.7" width="2.76" height="16.1" fill="#26a69a"/><line x1="513.9" x2="513.9" y1="130.3" y2="145.6" stroke="#26a69a" stroke-width="1"/><rect x="512.5" y="134.3" width="2.76" height="3.3" fill="#26a69a"/><line x1="518.3" x2="518.3" y1="124.5" y2="139.0" stroke="#26a69a" stroke-width="1"/><rect x="517.0" y="129.8" width="2.76" height="4.6" fill="#26a69a"/><line x1="522.8" x2="522.8" y1="115.3" y2="136.4" stroke="#26a69a" stroke-width="1"/><rect x="521.4" y="117.9" width="2.76" height="11.9" fill="#26a69a"/><line x1="527.3" x2="527.3" y1="113.4" y2="125.1" stroke="#ef5350" stroke-width="1"/><rect x="525.9" y="117.9" width="2.76" height="1.0" fill="#ef5350"/><line x1="531.7" x2="531.7" y1="110.0" y2="133.4" stroke="#ef5350" stroke-width="1"/><rect x="530.3" y="118.9" width="2.76" height="12.7" fill="#ef5350"/><line x1="536.2" x2="536.2" y1="117.0" y2="131.6" stroke="#26a69a" stroke-width="1"/><rect x="534.8" y="122.2" width="2.76" height="9.4" fill="#26a69a"/><line x1="540.6" x2="540.6" y1="106.2" y2="142.1" stroke="#ef5350" stroke-width="1"/><rect x="539.2" y="122.2" width="2.76" height="18.3" fill="#ef5350"/><line x1="545.1" x2="545.1" y1="131.1" y2="152.5" stroke="#ef5350" stroke-width="1"/><rect x="543.7" y="140.5" width="2.76" height="6.6" fill="#ef5350"/><line x1="549.5" x2="549.5" y1="143.1" y2="161.7" stroke="#ef5350" stroke-width="1"/><rect x="548.2" y="147.1" width="2.76" height="3.3" fill="#ef5350"/><line x1="554.0" x2="554.0" y1="140.8" y2="150.5" stroke="#26a69a" stroke-width="1"/><rect x="552.6" y="142.5" width="2.76" height="7.9" fill="#26a69a"/><line x1="558.5" x2="558.5" y1="134.0" y2="149.4" stroke="#ef5350" stroke-width="1"/><rect x="557.1" y="142.5" width="2.76" height="6.8" fill="#ef5350"/><line x1="562.9" x2="562.9" y1="149.3" y2="176.1" stroke="#ef5350" stroke-width="1"/><rect x="561.5" y="149.3" width="2.76" height="13.7" fill="#ef5350"/><line x1="567.4" x2="567.4" y1="140.5" y2="165.5" stroke="#26a69a" stroke-width="1"/><rect x="566.0" y="145.1" width="2.76" height="18.0" fill="#26a69a"/><line x1="571.8" x2="571.8" y1="112.1" y2="145.1" stroke="#26a69a" stroke-width="1"/><rect x="570.4" y="113.4" width="2.76" height="31.6" fill="#26a69a"/><line x1="576.3" x2="576.3" y1="102.3" y2="132.5" stroke="#ef5350" stroke-width="1"/><rect x="574.9" y="113.4" width="2.76" height="2.9" fill="#ef5350"/><line x1="580.7" x2="580.7" y1="97.8" y2="118.0" stroke="#26a69a" stroke-width="1"/><rect x="579.4" y="105.5" width="2.76" height="10.9" fill="#26a69a"/><line x1="585.2" x2="585.2" y1="88.7" y2="108.4" stroke="#26a69a" stroke-width="1"/><rect x="583.8" y="96.7" width="2.76" height="8.8" fill="#26a69a"/><line x1="589.7" x2="589.7" y1="87.6" y2="105.8" stroke="#ef5350" stroke-width="1"/><rect x="588.3" y="96.7" width="2.76" height="2.9" fill="#ef5350"/><line x1="594.1" x2="594.1" y1="80.9" y2="115.1" stroke="#26a69a" stroke-width="1"/><rect x="592.7" y="92.0" width="2.76" height="7.6" fill="#26a69a"/><line x1="598.6" x2="598.6" y1="71.5" y2="117.3" stroke="#26a69a" stroke-width="1"/><rect x="597.2" y="72.0" width="2.76" height="20.0" fill="#26a69a"/><line x1="603.0" x2="603.0" y1="66.5" y2="133.6" stroke="#ef5350" stroke-width="1"/><rect x="601.6" y="72.0" width="2.76" height="60.8" fill="#ef5350"/><line x1="607.5" x2="607.5" y1="125.1" y2="144.1" stroke="#ef5350" stroke-width="1"/><rect x="606.1" y="132.8" width="2.76" height="9.3" fill="#ef5350"/><line x1="611.9" x2="611.9" y1="132.0" y2="149.1" stroke="#26a69a" stroke-width="1"/><rect x="610.6" y="133.4" width="2.76" height="8.7" fill="#26a69a"/><line x1="616.4" x2="616.4" y1="127.5" y2="149.1" stroke="#ef5350" stroke-width="1"/><rect x="615.0" y="133.4" width="2.76" height="15.6" fill="#ef5350"/><line x1="620.9" x2="620.9" y1="136.9" y2="154.6" stroke="#26a69a" stroke-width="1"/><rect x="619.5" y="140.6" width="2.76" height="8.4" fill="#26a69a"/><line x1="625.3" x2="625.3" y1="137.4" y2="144.2" stroke="#ef5350" stroke-width="1"/><rect x="623.9" y="140.6" width="2.76" height="1.0" fill="#ef5350"/><line x1="629.8" x2="629.8" y1="139.9" y2="149.1" stroke="#26a69a" stroke-width="1"/><rect x="628.4" y="140.9" width="2.76" height="1.0" fill="#26a69a"/><path d="M10.2,142.3L14.7,142.3L19.1,142.3L23.6,142.3L28.1,142.3L32.5,142.3L37.0,142.3L41.4,142.3L45.9,142.3L50.3,227.4L54.8,227.4L59.3,227.4L63.7,227.4L68.2,227.4L72.6,227.4L77.1,227.4L81.5,227.4L86.0,227.4L90.5,227.4L94.9,227.4L99.4,227.4L103.8,167.0L108.3,167.0L112.7,167.0L117.2,167.0L121.7,167.0L126.1,167.0L130.6,167.0L135.0,167.0L139.5,167.0L143.9,167.0L148.4,53.4L152.9,53.4L157.3,53.4L161.8,53.4L166.2,53.4L170.7,53.4L175.1,53.4L179.6,53.4L184.1,31.8L188.5,31.8L193.0,31.8L197.4,31.8L201.9,31.8L206.3,31.8L210.8,31.8L215.3,31.8L219.7,31.8L224.2,31.8L228.6,31.8L233.1,31.8L237.5,31.8L242.0,31.8L246.5,31.8L250.9,31.8L255.4,203.1L259.8,203.1L264.3,203.1L268.7,203.1L273.2,203.1L277.7,203.1L282.1,203.1L286.6,203.1L291.0,203.1L295.5,203.1L299.9,203.1L304.4,203.1L308.9,203.1L313.3,183.9L317.8,183.9L322.2,183.9L326.7,183.9L331.1,183.9L335.6,183.9L340.1,183.9L344.5,183.9L349.0,183.9L353.4,183.9L357.9,183.9L362.3,183.9L366.8,183.9L371.3,183.9L375.7,183.9L380.2,183.9L384.6,183.9L389.1,183.9L393.5,183.9L398.0,183.9L402.5,183.9L406.9,183.9L411.4,183.9L415.8,183.9L420.3,183.9L424.7,183.9L429.2,183.9L433.7,183.9L438.1,183.9L442.6,183.9L447.0,183.9L451.5,183.9L455.9,46.2L460.4,46.2L464.9,46.2L469.3,46.2L473.8,46.2L478.2,46.2L482.7,46.2L487.1,46.2L491.6,46.2L496.1,46.2L500.5,46.2L505.0,46.2L509.4,46.2L513.9,65.2L518.3,65.2L522.8,65.2L527.3,65.2L531.7,65.2L536.2,65.2L540.6,65.2L545.1,65.2L549.5,65.2L554.0,65.2L558.5,65.2L562.9,106.2L567.4,106.2L571.8,106.2L576.3,106.2L580.7,106.2L585.2,106.2L589.7,106.2L594.1,106.2L598.6,106.2L603.0,106.2L607.5,106.2L611.9,106.2L616.4,106.2L620.9,106.2L625.3,66.5L629.8,66.5" fill="none" stroke="rgba(255,82,82,1)" stroke-width="2" stroke-linejoin="round"/><path d="M10.2,328.2L14.7,328.2L19.1,328.2L23.6,328.2L28.1,328.2L32.5,328.2L37.0,328.2L41.4,328.2L45.9,328.2L50.3,328.2L54.8,328.2L59.3,314.1L63.7,314.1L68.2,314.1L72.6,314.1L77.1,314.1L81.5,314.1L86.0,314.1L90.5,314.1L94.9,314.1L99.4,314.1L103.8,314.1L108.3,314.1L112.7,314.1L117.2,314.1L121.7,314.1L126.1,314.1L130.6,314.1L135.0,314.1L139.5,314.1L143.9,314.1L148.4,314.1L152.9,314.1L157.3,314.1L161.8,314.1L166.2,314.1L170.7,314.1L175.1,314.1L179.6,314.1L184.1,314.1L188.5,314.1L193.0,314.1L197.4,314.1L201.9,314.1L206.3,314.1L210.8,262.7L215.3,262.7L219.7,262.7L224.2,262.7L228.6,262.7L233.1,262.7L237.5,262.7L242.0,262.7L246.5,262.7L250.9,262.7L255.4,262.7L259.8,262.7L264.3,262.7L268.7,262.7L273.2,262.7L277.7,262.7L282.1,262.7L286.6,262.7L291.0,262.7L295.5,262.7L299.9,262.7L304.4,262.7L308.9,262.7L313.3,262.7L317.8,262.7L322.2,262.7L326.7,262.7L331.1,214.3L335.6,214.3L340.1,214.3L344.5,214.3L349.0,214.3L353.4,214.3L357.9,214.3L362.3,214.3L366.8,214.3L371.3,214.3L375.7,214.3L380.2,214.3L384.6,214.3L389.1,214.3L393.5,214.3L398.0,214.3L402.5,214.3L406.9,214.3L411.4,214.3L415.8,214.3L420.3,214.3L424.7,214.3L429.2,214.3L433.7,214.3L438.1,214.3L442.6,214.3L447.0,214.3L451.5,214.3L455.9,214.3L460.4,214.3L464.9,214.3L469.3,214.3L473.8,155.8L478.2,155.8L482.7,155.8L487.1,155.8L491.6,155.8L496.1,155.8L500.5,155.8L505.0,155.8L509.4,155.8L513.9,155.8L518.3,155.8L522.8,185.0L527.3,185.0L531.7,185.0L536.2,185.0L540.6,185.0L545.1,185.0L549.5,185.0L554.0,185.0L558.5,185.0L562.9,185.0L567.4,185.0L571.8,185.0L576.3,185.0L580.7,185.0L585.2,176.1L589.7,176.1L594.1,176.1L598.6,176.1L603.0,176.1L607.5,176.1L611.9,176.1L616.4,176.1L620.9,176.1L625.3,176.1L629.8,176.1" fill="none" stroke="rgba(76,175,80,1)" stroke-width="2" stroke-linejoin="round"/></svg>