<!-- 9740aa21df477785 --><svg xmlns="http://www.w3.org/2000/svg" viewBox="0 0 640 360" width="640" height="360" preserveAspectRatio="none"><rect width="640" height="360" fill="#0f0f10"/><line x1="0" x2="640" y1="60.0" y2="60.0" stroke="#1d1d20" stroke-width="1"/><line x1="0" x2="640" y1="120.0" y2="120.0" stroke="#1d1d20" stroke-width="1"/><line x1="0" x2="640" y1="180.0" y2="180.0" stroke="#1d1d20" stroke-width="1"/><line x1="0" x2="640" y1="240.0" y2="240.0" stroke="#1d1d20" stroke-width="1"/><line x1="0" x2="640" y1="300.0" y2="300.0" stroke="#1d1d20" stroke-width="1"/><line x1="10.2" x2="10.2" y1="294.0" y2="312.3" stroke="#ef5350" stroke-width="1"/><rect x="8.8" y="305.1" width="2.76" height="1.0" fill="#ef5350"/><line x1="14.7" x2="14.7" y1="286.1" y2="311.2" stroke="#26a69a" stroke-width="1"/><rect x="13.3" y="288.1" width="2.76" height="17.9" fill="#26a69a"/><line x1="19.1" x2="19.1" y1="256.7" y2="290.4" stroke="#26a69a" stroke-width="1"/><rect x="17.8" y="264.5" width="2.76" height="23.6" fill="#26a69a"/><line x1="23.6" x2="23.6" y1="246.2" y2="269.8" stroke="#26a69a" stroke-width="1"/><rect x="22.2" y="250.3" width="2.76" height="14.2" fill="#26a69a"/><line x1="28.1" x2="28.1" y1="241.6" y2="261.6" stroke="#ef5350" stroke-width="1"/><rect x="26.7" y="250.3" width="2.76" height="9.1" fill="#ef5350"/><line x1="32.5" x2="32.5" y1="254.8" y2="315.6" stroke="#ef5350" stroke-width="1"/><rect x="31.1" y="259.4" width="2.76" height="49.8" fill="#ef5350"/><line x1="37.0" x2="37.0" y1="300.1" y2="328.2" stroke="#26a69a" stroke-width="1"/><rect x="35.6" y="300.8" width="2.76" height="8.4" fill="#26a69a"/><line x1="41.4" x2="41.4" y1="277.8" y2="301.7" stroke="#26a69a" stroke-width="1"/><rect x="40.0" y="286.6" width="2.76" height="14.3" fill="#26a69a"/><line x1="45.9" x2="45.9" y1="265.9" y2="311.1" stroke="#26a69a" stroke-width="1"/><rect x="44.5" y="272.8" width="2.76" height="13.7" fill="#26a69a"/><line x1="50.3" x2="50.3" y1="266.1" y2="284.5" stroke="#ef5350" stroke-width="1"/><rect x="49.0" y="272.8" width="2.76" height="2.9" fill="#ef5350"/><line x1="54.8" x2="54.8" y1="264.7" y2="292.4" stroke="#ef5350" stroke-width="1"/><rect x="53.4" y="275.7" width="2.76" height="11.0" fill="#ef5350"/><line x1="59.3" x2="59.3" y1="267.1" y2="307.2" stroke="#26a69a" stroke-width="1"/><rect x="57.9" y="273.6" width="2.76" height="13.0" fill="#26a69a"/><line x1="63.7" x2="63.7" y1="245.7" y2="298.2" stroke="#26a69a" stroke-width="1"/><rect x="62.3" y="265.1" width="2.76" height="8.6" fill="#26a69a"/><line x1="68.2" x2="68.2" y1="246.7" y2="281.8" stroke="#26a69a" stroke-width="1"/><rect x="66.8" y="257.8" width="2.76" height="7.3" fill="#26a69a"/><line x1="72.6" x2="72.6" y1="226.8" y2="266.2" stroke="#26a69a" stroke-width="1"/><rect x="71.2" y="255.9" width="2.76" height="1.9" fill="#26a69a"/><line x1="77.1" x2="77.1" y1="194.3" y2="256.2" stroke="#26a69a" stroke-width="1"/><rect x="75.7" y="206.0" width="2.76" height="49.9" fill="#26a69a"/><line x1="81.5" x2="81.5" y1="181.2" y2="236.8" stroke="#ef5350" stroke-width="1"/><rect x="80.2" y="206.0" width="2.76" height="8.2" fill="#ef5350"/><line x1="86.0" x2="86.0" y1="207.7" y2="229.6" stroke="#ef5350" stroke-width="1"/><rect x="84.6" y="214.3" width="2.76" height="10.4" fill="#ef5350"/><line x1="90.5" x2="90.5" y1="209.1" y2="230.3" stroke="#ef5350" stroke-width="1"/><rect x="89.1" y="224.6" width="2.76" height="1.0" fill="#ef5350"/><line x1="94.9" x2="94.9" y1="221.3" y2="235.1" stroke="#ef5350" stroke-width="1"/><rect x="93.5" y="225.0" width="2.76" height="5.9" fill="#ef5350"/><line x1="99.4" x2="99.4" y1="213.6" y2="231.1" stroke="#26a69a" stroke-width="1"/><rect x="98.0" y="217.4" width="2.76" height="13.5" fill="#26a69a"/><line x1="103.8" x2="103.8" y1="206.6" y2="224.9" stroke="#26a69a" stroke-width="1"/><rect x="102.4" y="208.6" width="2.76" height="8.8" fill="#26a69a"/><line x1="108.3" x2="108.3" y1="203.8" y2="220.6" stroke="#ef5350" stroke-width="1"/><rect x="106.9" y="208.6" width="2.76" height="7.2" fill="#ef5350"/><line x1="112.7" x2="112.7" y1="201.5" y2="232.8" stroke="#26a69a" stroke-width="1"/><rect x="111.4" y="206.1" width="2.76" height="9.7" fill="#26a69a"/><line x1="117.2" x2="117.2" y1="186.6" y2="210.0" stroke="#26a69a" stroke-width="1"/><rect x="115.8" y="186.6" width="2.76" height="19.6" fill="#26a69a"/><line x1="121.7" x2="121.7" y1="161.6" y2="187.3" stroke="#26a69a" stroke-width="1"/><rect x="120.3" y="164.2" width="2.76" height="22.3" fill="#26a69a"/><line x1="126.1" x2="126.1" y1="67.7" y2="167.9" stroke="#26a69a" stroke-width="1"/><rect x="124.7" y="85.8" width="2.76" height="78.4" fill="#26a69a"/><line x1="130.6" x2="130.6" y1="83.6" y2="136.1" stroke="#ef5350" stroke-width="1"/><rect x="129.2" y="85.8" width="2.76" height="44.7" fill="#ef5350"/><line x1="135.0" x2="135.0" y1="124.7" y2="137.4" stroke="#ef5350" stroke-width="1"/><rect x="133.6" y="130.5" width="2.76" height="1.0" fill="#ef5350"/><line x1="139.5" x2="139.5" y1="73.0" y2="145.4" stroke="#26a69a" stroke-width="1"/><rect x="138.1" y="112.7" width="2.76" height="18.1" fill="#26a69a"/><line x1="143.9" x2="143.9" y1="87.6" y2="129.1" stroke="#ef5350" stroke-width="1"/><rect x="142.6" y="112.7" width="2.76" height="1.1" fill="#ef5350"/><line x1="148.4" x2="148.4" y1="98.8" y2="121.3" stroke="#26a69a" stroke-width="1"/><rect x="147.0" y="104.2" width="2.76" height="9.6" fill="#26a69a"/><line x1="152.9" x2="152.9" y1="94.3" y2="116.6" stroke="#ef5350" stroke-width="1"/><rect x="151.5" y="104.2" width="2.76" height="4.4" fill="#ef5350"/><line x1="157.3" x2="157.3" y1="90.5" y2="108.6" stroke="#26a69a" stroke-width="1"/><rect x="155.9" y="98.6" width="2.76" height="10.0" fill="#26a69a"/><line x1="161.8" x2="161.8" y1="46.1" y2="108.0" stroke="#26a69a" stroke-width="1"/><rect x="160.4" y="71.9" width="2.76" height="26.6" fill="#26a69a"/><line x1="166.2" x2="166.2" y1="46.4" y2="93.8" stroke="#ef5350" stroke-width="1"/><rect x="164.8" y="71.9" width="2.76" height="16.5" fill="#ef5350"/><line x1="170.7" x2="170.7" y1="70.1" y2="170.4" stroke="#ef5350" stroke-width="1"/><rect x="169.3" y="88.4" width="2.76" height="64.0" fill="#ef5350"/><line x1="175.1" x2="175.1" y1="146.5" y2="187.3" stroke="#ef5350" stroke-width="1"/><rect x="173.8" y="152.4" width="2.76" height="22.5" fill="#ef5350"/><line x1="179.6" x2="179.6" y1="162.8" y2="197.6" stroke="#ef5350" stroke-width="1"/><rect x="178.2" y="174.9" width="2.76" height="12.7" fill="#ef5350"/><line x1="184.1" x2="184.1" y1="180.3" y2="232.2" stroke="#ef5350" stroke-width="1"/><rect x="182.7" y="187.5" width="2.76" height="25.3" fill="#ef5350"/><line x1="188.5" x2="188.5" y1="205.8" y2="276.9" stroke="#ef5350" stroke-width="1"/><rect x="187.1" y="212.9" width="2.76" height="37.3" fill="#ef5350"/><line x1="193.0" x2="193.0" y1="245.2" y2="269.7" stroke="#26a69a" stroke-width="1"/><rect x="191.6" y="246.5" width="2.76" height="3.7" fill="#26a69a"/><line x1="197.4" x2="197.4" y1="231.2" y2="252.9" stroke="#26a69a" stroke-width="1"/><rect x="196.0" y="236.6" width="2.76" height="9.8" fill="#26a69a"/><line x1="201.9" x2="201.9" y1="229.2" y2="239.0" stroke="#26a69a" stroke-width="1"/><rect x="200.5" y="231.0" width="2.76" height="5.6" fill="#26a69a"/><line x1="206.3" x2="206.3" y1="228.9" y2="236.7" stroke="#26a69a" stroke-width="1"/><rect x="205.0" y="229.6" width="2.76" height="1.4" fill="#26a69a"/><line x1="210.8" x2="210.8" y1="228.6" y2="235.1" stroke="#ef5350" stroke-width="1"/><rect x="209.4" y="229.6" width="2.76" height="3.1" fill="#ef5350"/><line x1="215.3" x2="215.3" y1="220.8" y2="236.3" stroke="#26a69a" stroke-width="1"/><rect x="213.9" y="223.2" width="2.76" height="9.4" fill="#26a69a"/><line x1="219.7" x2="219.7" y1="218.2" y2="226.3" stroke="#ef5350" stroke-width="1"/><rect x="218.3" y="223.2" width="2.76" height="1.0" fill="#ef5350"/><line x1="224.2" x2="224.2" y1="220.6" y2="226.3" stroke="#ef5350" stroke-width="1"/><rect x="222.8" y="223.8" width="2.76" height="2.4" fill="#ef5350"/><line x1="228.6" x2="228.6" y1="220.3" y2="231.3" stroke="#26a69a" stroke-width="1"/><rect x="227.2" y="220.3" width="2.76" height="6.0" fill="#26a69a"/><line x1="233.1" x2="233.1" y1="217.3" y2="231.3" stroke="#ef5350" stroke-width="1"/><rect x="231.7" y="220.3" width="2.76" height="7.1" fill="#ef5350"/><line x1="237.5" x2="237.5" y1="222.6" y2="229.2" stroke="#26a69a" stroke-width="1"/><rect x="236.2" y="223.4" width="2.76" height="4.1" fill="#26a69a"/><line x1="242.0" x2="242.0" y1="221.0" y2="229.8" stroke="#ef5350" stroke-width="1"/><rect x="240.6" y="223.4" width="2.76" height="5.6" fill="#ef5350"/><line x1="246.5" x2="246.5" y1="222.3" y2="228.9" stroke="#26a69a" stroke-width="1"/><rect x="245.1" y="228.2" width="2.76" height="1.0" fill="#26a69a"/><line x1="250.9" x2="250.9" y1="222.9" y2="229.3" stroke="#26a69a" stroke-width="1"/><rect x="249.5" y="225.2" width="2.76" height="3.0" fill="#26a69a"/><line x1="255.4" x2="255.4" y1="221.7" y2="227.2" stroke="#ef5350" stroke-width="1"/><rect x="254.0" y="225.2" width="2.76" height="1.6" fill="#ef5350"/><line x1="259.8" x2="259.8" y1="223.5" y2="227.9" stroke="#26a69a" stroke-width="1"/><rect x="258.4" y="224.2" width="2.76" height="2.6" fill="#26a69a"/><line x1="264.3" x2="264.3" y1="219.3" y2="224.5" stroke="#26a69a" stroke-width="1"/><rect x="262.9" y="221.9" width="2.76" height="2.2" fill="#26a69a"/><line x1="268.7" x2="268.7" y1="204.4" y2="221.9" stroke="#26a69a" stroke-width="1"/><rect x="267.4" y="206.9" width="2.76" height="15.0" fill="#26a69a"/><line x1="273.2" x2="273.2" y1="201.6" y2="213.9" stroke="#ef5350" stroke-width="1"/><rect x="271.8" y="206.9" width="2.76" height="1.0" fill="#ef5350"/><line x1="277.7" x2="277.7" y1="207.9" y2="215.4" stroke="#ef5350" stroke-width="1"/><rect x="276.3" y="207.9" width="2.76" height="1.8" fill="#ef5350"/><line x1="282.1" x2="282.1" y1="208.1" y2="214.5" stroke="#26a69a" stroke-width="1"/><rect x="280.7" y="208.1" width="2.76" height="1.7" fill="#26a69a"/><line x1="286.6" x2="286.6" y1="207.6" y2="213.7" stroke="#ef5350" stroke-width="1"/><rect x="285.2" y="208.1" width="2.76" height="1.0" fill="#ef5350"/><line x1="291.0" x2="291.0" y1="198.1" y2="210.1" stroke="#26a69a" stroke-width="1"/><rect x="289.6" y="198.1" width="2.76" height="10.3" fill="#26a69a"/><line x1="295.5" x2="295.5" y1="198.1" y2="204.3" stroke="#ef5350" stroke-width="1"/><rect x="294.1" y="198.1" width="2.76" height="4.2" fill="#ef5350"/><line x1="299.9" x2="299.9" y1="202.3" y2="217.9" stroke="#ef5350" stroke-width="1"/><rect x="298.6" y="202.3" width="2.76" height="7.0" fill="#ef5350"/><line x1="304.4" x2="304.4" y1="204.6" y2="217.4" stroke="#ef5350" stroke-width="1"/><rect x="303.0" y="209.3" width="2.76" height="6.6" fill="#ef5350"/><line x1="308.9" x2="308.9" y1="213.5" y2="228.5" stroke="#ef5350" stroke-width="1"/><rect x="307.5" y="216.0" width="2.76" height="2.1" fill="#ef5350"/><line x1="313.3" x2="313.3" y1="212.1" y2="219.6" stroke="#26a69a" stroke-width="1"/><rect x="311.9" y="214.5" width="2.76" height="3.5" fill="#26a69a"/><line x1="317.8" x2="317.8" y1="212.7" y2="217.0" stroke="#ef5350" stroke-width="1"/><rect x="316.4" y="214.5" width="2.76" height="1.0" fill="#ef5350"/><line x1="322.2" x2="322.2" y1="208.4" y2="215.1" stroke="#26a69a" stroke-width="1"/><rect x="320.8" y="212.5" width="2.76" height="2.6" fill="#26a69a"/><line x1="326.7" x2="326.7" y1="210.9" y2="218.0" stroke="#26a69a" stroke-width="1"/><rect x="325.3" y="211.9" width="2.76" height="1.0" fill="#26a69a"/><line x1="331.1" x2="331.1" y1="208.4" y2="214.0" stroke="#ef5350" stroke-width="1"/><rect x="329.8" y="211.9" width="2.76" height="1.0" fill="#ef5350"/><line x1="335.6" x2="335.6" y1="206.3" y2="212.8" stroke="#26a69a" stroke-width="1"/><rect x="334.2" y="209.7" width="2.76" height="2.5" fill="#26a69a"/><line x1="340.1" x2="340.1" y1="209.0" y2="211.9" stroke="#ef5350" stroke-width="1"/><rect x="338.7" y="209.7" width="2.76" height="1.9" fill="#ef5350"/><line x1="344.5" x2="344.5" y1="203.3" y2="211.6" stroke="#26a69a" stroke-width="1"/><rect x="343.1" y="204.5" width="2.76" height="7.1" fill="#26a69a"/><line x1="349.0" x2="349.0" y1="193.5" y2="205.9" stroke="#26a69a" stroke-width="1"/><rect x="347.6" y="195.0" width="2.76" height="9.5" fill="#26a69a"/><line x1="353.4" x2="353.4" y1="191.1" y2="203.0" stroke="#26a69a" stroke-width="1"/><rect x="352.0" y="191.1" width="2.76" height="3.8" fill="#26a69a"/><line x1="357.9" x2="357.9" y1="185.0" y2="196.2" stroke="#ef5350" stroke-width="1"/><rect x="356.5" y="191.1" width="2.76" height="1.0" fill="#ef5350"/><line x1="362.3" x2="362.3" y1="175.8" y2="194.1" stroke="#26a69a" stroke-width="1"/><rect x="361.0" y="182.7" width="2.76" height="8.5" fill="#26a69a"/><line x1="366.8" x2="366.8" y1="169.1" y2="182.9" stroke="#26a69a" stroke-width="1"/><rect x="365.4" y="179.4" width="2.76" height="3.3" fill="#26a69a"/><line x1="371.3" x2="371.3" y1="175.8" y2="183.3" stroke="#26a69a" stroke-width="1"/><rect x="369.9" y="176.8" width="2.76" height="2.6" fill="#26a69a"/><line x1="375.7" x2="375.7" y1="170.8" y2="190.9" stroke="#ef5350" stroke-width="1"/><rect x="374.3" y="176.8" width="2.76" height="12.1" fill="#ef5350"/><line x1="380.2" x2="380.2" y1="176.1" y2="190.2" stroke="#26a69a" stroke-width="1"/><rect x="378.8" y="181.0" width="2.76" height="7.8" fill="#26a69a"/><line x1="384.6" x2="384.6" y1="178.6" y2="190.7" stroke="#26a69a" stroke-width="1"/><rect x="383.2" y="178.6" width="2.76" height="2.4" fill="#26a69a"/><line x1="389.1" x2="389.1" y1="165.6" y2="181.0" stroke="#ef5350" stroke-width="1"/><rect x="387.7" y="178.6" width="2.76" height="2.2" fill="#ef5350"/><line x1="393.5" x2="393.5" y1="168.9" y2="185.9" stroke="#26a69a" stroke-width="1"/><rect x="392.2" y="173.2" width="2.76" height="7.6" fill="#26a69a"/><line x1="398.0" x2="398.0" y1="166.9" y2="177.2" stroke="#ef5350" stroke-width="1"/><rect x="396.6" y="173.2" width="2.76" height="3.5" fill="#ef5350"/><line x1="402.5" x2="402.5" y1="173.2" y2="177.2" stroke="#26a69a" stroke-width="1"/><rect x="401.1" y="175.1" width="2.76" height="1.5" fill="#26a69a"/><line x1="406.9" x2="406.9" y1="160.0" y2="175.1" stroke="#26a69a" stroke-width="1"/><rect x="405.5" y="168.9" width="2.76" height="6.3" fill="#26a69a"/><line x1="411.4" x2="411.4" y1="138.0" y2="171.0" stroke="#26a69a" stroke-width="1"/><rect x="410.0" y="141.1" width="2.76" height="27.8" fill="#26a69a"/><line x1="415.8" x2="415.8" y1="124.6" y2="144.2" stroke="#26a69a" stroke-width="1"/><rect x="414.4" y="139.5" width="2.76" height="1.6" fill="#26a69a"/><line x1="420.3" x2="420.3" y1="82.3" y2="139.5" stroke="#26a69a" stroke-width="1"/><rect x="418.9" y="97.5" width="2.76" height="42.0" fill="#26a69a"/><line x1="424.7" x2="424.7" y1="73.0" y2="100.2" stroke="#26a69a" stroke-width="1"/><rect x="423.4" y="92.3" width="2.76" height="5.2" fill="#26a69a"/><line x1="429.2" x2="429.2" y1="80.4" y2="115.4" stroke="#26a69a" stroke-width="1"/><rect x="427.8" y="84.9" width="2.76" height="7.4" fill="#26a69a"/><line x1="433.7" x2="433.7" y1="60.5" y2="96.7" stroke="#ef5350" stroke-width="1"/><rect x="432.3" y="84.9" width="2.76" height="1.4" fill="#ef5350"/><line x1="438.1" x2="438.1" y1="78.2" y2="100.2" stroke="#ef5350" stroke-width="1"/><rect x="436.7" y="86.3" width="2.76" height="6.7" fill="#ef5350"/><line x1="442.6" x2="442.6" y1="92.9" y2="126.9" stroke="#ef5350" stroke-width="1"/><rect x="441.2" y="92.9" width="2.76" height="30.6" fill="#ef5350"/><line x1="447.0" x2="447.0" y1="121.4" y2="166.6" stroke="#ef5350" stroke-width="1"/><rect x="445.6" y="123.6" width="2.76" height="38.9" fill="#ef5350"/><line x1="451.5" x2="451.5" y1="145.1" y2="170.0" stroke="#26a69a" stroke-width="1"/><rect x="450.1" y="147.2" width="2.76" height="15.3" fill="#26a69a"/><line x1="455.9" x2="455.9" y1="99.2" y2="147.2" stroke="#26a69a" stroke-width="1"/><rect x="454.6" y="114.2" width="2.76" height="33.0" fill="#26a69a"/><line x1="460.4" x2="460.4" y1="97.4" y2="120.5" stroke="#ef5350" stroke-width="1"/><rect x="459.0" y="114.2" width="2.76" height="1.5" fill="#ef5350"/><line x1="464.9" x2="464.9" y1="97.1" y2="124.8" stroke="#26a69a" stroke-width="1"/><rect x="463.5" y="113.6" width="2.76" height="2.0" fill="#26a69a"/><line x1="469.3" x2="469.3" y1="113.6" y2="144.1" stroke="#ef5350" stroke-width="1"/><rect x="467.9" y="113.6" width="2.76" height="17.0" fill="#ef5350"/><line x1="473.8" x2="473.8" y1="116.1" y2="131.8" stroke="#26a69a" stroke-width="1"/><rect x="472.4" y="121.7" width="2.76" height="8.9" fill="#26a69a"/><line x1="478.2" x2="478.2" y1="111.2" y2="134.4" stroke="#26a69a" stroke-width="1"/><rect x="476.8" y="114.3" width="2.76" height="7.4" fill="#26a69a"/><line x1="482.7" x2="482.7" y1="114.3" y2="140.4" stroke="#ef5350" stroke-width="1"/><rect x="481.3" y="114.3" width="2.76" height="22.4" fill="#ef5350"/><line x1="487.1" x2="487.1" y1="92.1" y2="140.9" stroke="#26a69a" stroke-width="1"/><rect x="485.8" y="98.8" width="2.76" height="37.9" fill="#26a69a"/><line x1="491.6" x2="491.6" y1="79.5" y2="168.7" stroke="#ef5350" stroke-width="1"/><rect x="490.2" y="98.8" width="2.76" height="54.6" fill="#ef5350"/><line x1="496.1" x2="496.1" y1="153.1" y2="184.4" stroke="#ef5350" stroke-width="1"/><rect x="494.7" y="153.5" width="2.76" height="26.5" fill="#ef5350"/><line x1="500.5" x2="500.5" y1="175.4" y2="199.2" stroke="#26a69a" stroke-width="1"/><rect x="499.1" y="176.9" width="2.76" height="3.1" fill="#26a69a"/><line x1="505.0" x2="505.0" y1="167.1" y2="183.5" stroke="#26a69a" stroke-width="1"/><rect x="503.6" y="168.1" width="2.76" height="8.8" fill="#26a69a"/><line x1="509.4" x2="509.4" y1="151.9" y2="174.0" stroke="#26a69a" stroke-width="1"/><rect x="508.0" y="151.9" width="2.76" height="16.1" fill="#26a69a"/><line x1="513.9" x2="513.9" y1="144.6" y2="159.9" stroke="#26a69a" stroke-width="1"/><rect x="512.5" y="148.6" width="2.76" height="3.3" fill="#26a69a"/><line x1="518.3" x2="518.3" y1="138.7" y2="153.3" stroke="#26a69a" stroke-width="1"/><rect x="517.0" y="144.0" width="2.76" height="4.6" fill="#26a69a"/><line x1="522.8" x2="522.8" y1="129.5" y2="150.7" stroke="#26a69a" stroke-width="1"/><rect x="521.4" y="132.1" width="2.76" height="11.9" fill="#26a69a"/><line x1="527.3" x2="527.3" y1="127.7" y2="139.3" stroke="#ef5350" stroke-width="1"/><rect x="525.9" y="132.1" width="2.76" height="1.0" fill="#ef5350"/><line x1="531.7" x2="531.7" y1="124.3" y2="147.7" stroke="#ef5350" stroke-width="1"/><rect x="530.3" y="133.1" width="2.76" height="12.7" fill="#ef5350"/><line x1="536.2" x2="536.2" y1="131.2" y2="145.8" stroke="#26a69a" stroke-width="1"/><rect x="534.8" y="136.4" width="2.76" height="9.4" fill="#26a69a"/><line x1="540.6" x2="540.6" y1="120.5" y2="156.4" stroke="#ef5350" stroke-width="1"/><rect x="539.2" y="136.4" width="2.76" height="18.3" fill="#ef5350"/><line x1="545.1" x2="545.1" y1="145.4" y2="166.7" stroke="#ef5350" stroke-width="1"/><rect x="543.7" y="154.8" width="2.76" height="6.6" fill="#ef5350"/><line x1="549.5" x2="549.5" y1="157.4" y2="175.9" stroke="#ef5350" stroke-width="1"/><rect x="548.2" y="161.4" width="2.76" height="3.3" fill="#ef5350"/><line x1="554.0" x2="554.0" y1="155.1" y2="164.7" stroke="#26a69a" stroke-width="1"/><rect x="552.6" y="156.8" width="2.76" height="7.9" fill="#26a69a"/><line x1="558.5" x2="558.5" y1="148.2" y2="163.6" stroke="#ef5350" stroke-width="1"/><rect x="557.1" y="156.8" width="2.76" height="6.8" fill="#ef5350"/><line x1="562.9" x2="562.9" y1="163.5" y2="190.4" stroke="#ef5350" stroke-width="1"/><rect x="561.5" y="163.5" width="2.76" height="13.7" fill="#ef5350"/><line x1="567.4" x2="567.4" y1="154.8" y2="179.7" stroke="#26a69a" stroke-width="1"/><rect x="566.0" y="159.3" width="2.76" height="18.0" fill="#26a69a"/><line x1="571.8" x2="571.8" y1="126.4" y2="159.3" stroke="#26a69a" stroke-width="1"/><rect x="570.4" y="127.7" width="2.76" height="31.6" fill="#26a69a"/><line x1="576.3" x2="576.3" y1="116.6" y2="146.7" stroke="#ef5350" stroke-width="1"/><rect x="574.9" y="127.7" width="2.76" height="2.9" fill="#ef5350"/><line x1="580.7" x2="580.7" y1="112.0" y2="132.2" stroke="#26a69a" stroke-width="1"/><rect x="579.4" y="119.7" width="2.76" height="10.9" fill="#26a69a"/><line x1="585.2" x2="585.2" y1="103.0" y2="122.6" stroke="#26a69a" stroke-width="1"/><rect x="583.8" y="110.9" width="2.76" height="8.8" fill="#26a69a"/><line x1="589.7" x2="589.7" y1="101.9" y2="120.1" stroke="#ef5350" stroke-width="1"/><rect x="588.3" y="110.9" width="2.76" height="2.9" fill="#ef5350"/><line x1="594.1" x2="594.1" y1="95.2" y2="129.4" stroke="#26a69a" stroke-width="1"/><rect x="592.7" y="106.3" width="2.76" height="7.6" fill="#26a69a"/><line x1="598.6" x2="598.6" y1="85.8" y2="131.6" stroke="#26a69a" stroke-width="1"/><rect x="597.2" y="86.3" width="2.76" height="20.0" fill="#26a69a"/><line x1="603.0" x2="603.0" y1="80.8" y2="147.8" stroke="#ef5350" stroke-width="1"/><rect x="601.6" y="86.3" width="2.76" height="60.8" fill="#ef5350"/><line x1="607.5" x2="607.5" y1="139.4" y2="158.4" stroke="#ef5350" stroke-width="1"/><rect x="606.1" y="147.1" width="2.76" height="9.2" fill="#ef5350"/><line x1="611.9" x2="611.9" y1="146.3" y2="163.3" stroke="#26a69a" stroke-width="1"/><rect x="610.6" y="147.7" width="2.76" height="8.6" fill="#26a69a"/><line x1="616.4" x2="616.4" y1="141.7" y2="163.3" stroke="#ef5350" stroke-width="1"/><rect x="615.0" y="147.7" width="2.76" height="15.6" fill="#ef5350"/><line x1="620.9" x2="620.9" y1="151.2" y2="168.9" stroke="#26a69a" stroke-width="1"/><rect x="619.5" y="154.8" width="2.76" height="8.4" fill="#26a69a"/><line x1="625.3" x2="625.3" y1="151.7" y2="158.4" stroke="#ef5350" stroke-width="1"/><rect x="623.9" y="154.8" width="2.76" height="1.0" fill="#ef5350"/><line x1="629.8" x2="629.8" y1="154.2" y2="163.3" stroke="#26a69a" stroke-width="1"/><rect x="628.4" y="155.1" width="2.76" height="1.0" fill="#26a69a"/><path d="M10.2,321.2L14.7,309.3L19.1,282.3L23.6,252.9L28.1,237.0L32.5,264.4L37.0,287.2L41.4,299.4L45.9,296.2L50.3,279.2L54.8,276.6L59.3,270.8L63.7,265.5L68.2,255.9L72.6,244.1L77.1,206.9L81.5,188.0L86.0,183.8L90.5,182.1L94.9,201.8L99.4,205.1L103.8,198.6L108.3,198.6L112.7,190.6L117.2,176.4L121.7,154.4L126.1,84.3L130.6,65.8L135.0,59.9L139.5,51.7L143.9,73.3L148.4,68.8L152.9,68.9L157.3,68.9L161.8,51.5L166.2,53.2L170.7,95.8L175.1,145.8L179.6,200.0L184.1,250.9L188.5,291.4L193.0,310.5L197.4,312.8L201.9,301.4L206.3,278.8L210.8,264.6L215.3,250.6L219.7,242.1L224.2,237.7L228.6,229.2L233.1,230.7L237.5,228.9L242.0,230.3L246.5,232.8L250.9,230.2L255.4,230.7L259.8,227.4L264.3,223.7L268.7,212.0L273.2,203.6L277.7,199.5L282.1,196.3L286.6,199.2L291.0,194.4L295.5,193.1L299.9,197.5L304.4,205.2L308.9,215.7L313.3,219.8L317.8,220.8L322.2,217.6L326.7,214.0L331.1,212.8L335.6,209.9L340.1,210.0L344.5,205.6L349.0,195.9L353.4,187.2L357.9,180.2L362.3,172.0L366.8,167.1L371.3,163.3L375.7,168.6L380.2,170.4L384.6,171.5L389.1,174.6L393.5,168.1L398.0,168.2L402.5,168.2L406.9,163.5L411.4,144.3L415.8,128.0L420.3,89.1L424.7,59.3L429.2,42.2L433.7,31.8L438.1,43.1L442.6,74.2L447.0,125.8L451.5,153.6L455.9,150.0L460.4,137.9L464.9,114.6L469.3,113.6L473.8,118.1L478.2,116.0L482.7,130.1L487.1,109.7L491.6,133.8L496.1,171.6L500.5,189.8L505.0,209.7L509.4,195.1L513.9,173.0L518.3,154.3L522.8,135.4L527.3,127.4L531.7,131.2L536.2,129.4L540.6,144.2L545.1,159.3L549.5,168.4L554.0,172.8L558.5,174.4L562.9,182.2L567.4,174.9L571.8,151.0L576.3,132.9L580.7,107.9L585.2,89.8L589.7,89.2L594.1,83.2L598.6,69.5L603.0,102.8L607.5,133.0L611.9,152.1L616.4,183.0L620.9,180.0L625.3,174.6L629.8,173.1" fill="none" stroke="rgba(255,235,59,1)" stroke-width="2" stroke-linejoin="round"/></svg>